<svg width="18" height="18" viewBox="0 0 18 18" fill="none" xmlns="http://www.w3.org/2000/svg">
<path d="M17.9968 5.99707H0V6.74707C0 7.1449 0.158035 7.52643 0.43934 7.80773C0.720644 8.08904 1.10218 8.24707 1.5 8.24707H3.75C4.14782 8.24707 4.52936 8.08904 4.81066 7.80773C5.09196 7.52643 5.25 7.1449 5.25 6.74707C5.25 7.1449 5.40804 7.52643 5.68934 7.80773C5.97064 8.08904 6.35218 8.24707 6.75 8.24707H11.25C11.6478 8.24707 12.0294 8.08904 12.3107 7.80773C12.592 7.52643 12.75 7.1449 12.75 6.74707C12.75 7.1449 12.908 7.52643 13.1893 7.80773C13.4706 8.08904 13.8522 8.24707 14.25 8.24707H16.5C16.8978 8.24707 17.2794 8.08904 17.5607 7.80773C17.842 7.52643 18 7.1449 18 6.74707V5.99707H17.9968Z" fill="#DB00FF"/>
<path d="M17.8163 5.25L16.4717 0.54375C16.4269 0.38708 16.3323 0.249267 16.2022 0.15116C16.0721 0.0530536 15.9136 -9.08725e-06 15.7506 1.16728e-09L12.3154 1.16728e-09L13.3654 5.25H17.8163Z" fill="#DB00FF"/>
<path d="M5.6874 1.16728e-09H2.25221C2.08926 -9.08725e-06 1.93074 0.0530536 1.80063 0.15116C1.67052 0.249267 1.5759 0.38708 1.53109 0.54375L0.186523 5.25H4.6374L5.6874 1.16728e-09Z" fill="#DB00FF"/>
<path d="M10.7844 0H7.21406L6.16406 5.25H11.8344L10.7844 0Z" fill="#DB00FF"/>
<path d="M14.249 9.00107C13.6952 9.00153 13.1609 8.79694 12.749 8.42676C12.3372 8.79694 11.8028 9.00153 11.249 9.00107H6.74902C6.19524 9.00153 5.6609 8.79694 5.24902 8.42676C4.83715 8.79694 4.30281 9.00153 3.74902 9.00107H1.49902C1.24336 9.00053 0.989678 8.95614 0.749023 8.86982V17.2511C0.749023 17.45 0.828041 17.6407 0.968693 17.7814C1.10935 17.9221 1.30011 18.0011 1.49902 18.0011H2.99902V11.2511C2.99902 11.0522 3.07804 10.8614 3.21869 10.7207C3.35935 10.5801 3.55011 10.5011 3.74902 10.5011H7.49902C7.69794 10.5011 7.8887 10.5801 8.02936 10.7207C8.17001 10.8614 8.24903 11.0522 8.24903 11.2511V18.0011H16.499C16.6979 18.0011 16.8887 17.9221 17.0294 17.7814C17.17 17.6407 17.249 17.45 17.249 17.2511V8.86982C17.0084 8.95614 16.7547 9.00053 16.499 9.00107H14.249ZM14.999 13.5011C14.999 13.7 14.92 13.8907 14.7794 14.0314C14.6387 14.1721 14.4479 14.2511 14.249 14.2511H10.499C10.3001 14.2511 10.1093 14.1721 9.9687 14.0314C9.82804 13.8907 9.74903 13.7 9.74903 13.5011V11.2511C9.74903 11.0522 9.82804 10.8614 9.9687 10.7207C10.1093 10.5801 10.3001 10.5011 10.499 10.5011H14.249C14.4479 10.5011 14.6387 10.5801 14.7794 10.7207C14.92 10.8614 14.999 11.0522 14.999 11.2511V13.5011Z" fill="#DB00FF"/>
</svg>
