<svg width="13" height="18" viewBox="0 0 13 18" fill="none" xmlns="http://www.w3.org/2000/svg">
<path fill-rule="evenodd" clip-rule="evenodd" d="M10.7417 4C10.7417 6.20914 8.95084 8 6.7417 8C4.53256 8 2.7417 6.20914 2.7417 4C2.7417 1.79086 4.53256 0 6.7417 0C8.95084 0 10.7417 1.79086 10.7417 4ZM8.7417 4C8.7417 5.10457 7.84627 6 6.7417 6C5.63713 6 4.7417 5.10457 4.7417 4C4.7417 2.89543 5.63713 2 6.7417 2C7.84627 2 8.7417 2.89543 8.7417 4Z" fill="white"/>
<path d="M10.7417 12C10.7417 11.4477 10.294 11 9.7417 11H3.7417C3.18941 11 2.7417 11.4477 2.7417 12V18H0.741699V12C0.741699 10.3431 2.08485 9 3.7417 9H9.7417C11.3986 9 12.7417 10.3431 12.7417 12V18H10.7417V12Z" fill="white"/>
</svg>
