<svg width="60" height="60" viewBox="0 0 60 60" fill="none" xmlns="http://www.w3.org/2000/svg">
<path opacity="0.2" fill-rule="evenodd" clip-rule="evenodd" d="M30 60C46.5685 60 60 46.5685 60 30C60 13.4315 46.5685 0 30 0C13.4315 0 0 13.4315 0 30C0 46.5685 13.4315 60 30 60Z" fill="#E6771F"/>
<path d="M35.8326 37.625V36.0417C35.8326 35.2018 35.4989 34.3964 34.9051 33.8025C34.3112 33.2086 33.5057 32.875 32.6659 32.875H26.3326C25.4927 32.875 24.6873 33.2086 24.0934 33.8025C23.4995 34.3964 23.1659 35.2018 23.1659 36.0417V37.625" fill="#E6771F"/>
<path d="M35.8326 37.625V36.0417C35.8326 35.2018 35.4989 34.3964 34.9051 33.8025C34.3112 33.2086 33.5057 32.875 32.6659 32.875H26.3326C25.4927 32.875 24.6873 33.2086 24.0934 33.8025C23.4995 34.3964 23.1659 35.2018 23.1659 36.0417V37.625" stroke="#E6771F" stroke-width="1.58333" stroke-linecap="round" stroke-linejoin="round"/>
<path d="M29.5008 29.7083C31.2497 29.7083 32.6674 28.2906 32.6674 26.5417C32.6674 24.7928 31.2497 23.375 29.5008 23.375C27.7519 23.375 26.3341 24.7928 26.3341 26.5417C26.3341 28.2906 27.7519 29.7083 29.5008 29.7083Z" fill="#E6771F" stroke="#E6771F" stroke-width="1.58333" stroke-linecap="round" stroke-linejoin="round"/>
</svg>
