<svg width="60" height="60" viewBox="0 0 60 60" fill="none" xmlns="http://www.w3.org/2000/svg">
<path opacity="0.2" fill-rule="evenodd" clip-rule="evenodd" d="M30 60C46.5685 60 60 46.5685 60 30C60 13.4315 46.5685 0 30 0C13.4315 0 0 13.4315 0 30C0 46.5685 13.4315 60 30 60Z" fill="#DB00FF"/>
<g clip-path="url(#clip0_2950_6169)">
<path d="M38.9968 26.9971H21V27.7471C21 28.1449 21.158 28.5264 21.4393 28.8077C21.7206 29.089 22.1022 29.2471 22.5 29.2471H24.75C25.1478 29.2471 25.5294 29.089 25.8107 28.8077C26.092 28.5264 26.25 28.1449 26.25 27.7471C26.25 28.1449 26.408 28.5264 26.6893 28.8077C26.9706 29.089 27.3522 29.2471 27.75 29.2471H32.25C32.6478 29.2471 33.0294 29.089 33.3107 28.8077C33.592 28.5264 33.75 28.1449 33.75 27.7471C33.75 28.1449 33.908 28.5264 34.1893 28.8077C34.4706 29.089 34.8522 29.2471 35.25 29.2471H37.5C37.8978 29.2471 38.2794 29.089 38.5607 28.8077C38.842 28.5264 39 28.1449 39 27.7471V26.9971H38.9968Z" fill="#DB00FF"/>
<path d="M38.816 26.25L37.4714 21.5438C37.4266 21.3871 37.332 21.2493 37.2019 21.1512C37.0718 21.0531 36.9133 21 36.7503 21H33.3151L34.3651 26.25H38.816Z" fill="#DB00FF"/>
<path d="M26.6871 21H23.2519C23.089 21 22.9304 21.0531 22.8003 21.1512C22.6702 21.2493 22.5756 21.3871 22.5308 21.5438L21.1862 26.25H25.6371L26.6871 21Z" fill="#DB00FF"/>
<path d="M31.7848 21H28.2144L27.1644 26.25H32.8348L31.7848 21Z" fill="#DB00FF"/>
<path d="M35.2487 30.0011C34.6949 30.0015 34.1606 29.7969 33.7487 29.4268C33.3368 29.7969 32.8025 30.0015 32.2487 30.0011H27.7487C27.1949 30.0015 26.6606 29.7969 26.2487 29.4268C25.8368 29.7969 25.3025 30.0015 24.7487 30.0011H22.4987C22.2431 30.0005 21.9894 29.9561 21.7487 29.8698V38.2511C21.7487 38.45 21.8277 38.6407 21.9684 38.7814C22.109 38.9221 22.2998 39.0011 22.4987 39.0011H23.9987V32.2511C23.9987 32.0522 24.0777 31.8614 24.2184 31.7207C24.359 31.5801 24.5498 31.5011 24.7487 31.5011H28.4987C28.6976 31.5011 28.8884 31.5801 29.029 31.7207C29.1697 31.8614 29.2487 32.0522 29.2487 32.2511V39.0011H37.4987C37.6976 39.0011 37.8884 38.9221 38.0291 38.7814C38.1697 38.6407 38.2487 38.45 38.2487 38.2511V29.8698C38.0081 29.9561 37.7544 30.0005 37.4987 30.0011H35.2487ZM35.9987 34.5011C35.9987 34.7 35.9197 34.8907 35.7791 35.0314C35.6384 35.1721 35.4476 35.2511 35.2487 35.2511H31.4987C31.2998 35.2511 31.109 35.1721 30.9684 35.0314C30.8277 34.8907 30.7487 34.7 30.7487 34.5011V32.2511C30.7487 32.0522 30.8277 31.8614 30.9684 31.7207C31.109 31.5801 31.2998 31.5011 31.4987 31.5011H35.2487C35.4476 31.5011 35.6384 31.5801 35.7791 31.7207C35.9197 31.8614 35.9987 32.0522 35.9987 32.2511V34.5011Z" fill="#DB00FF"/>
</g>
<defs>
<clipPath id="clip0_2950_6169">
<rect width="18" height="18" fill="white" transform="translate(21 21)"/>
</clipPath>
</defs>
</svg>
