<svg width="32" height="32" viewBox="0 0 32 32" fill="none" xmlns="http://www.w3.org/2000/svg">
<circle cx="16" cy="16" r="16" fill="#FFF6F6"/>
<path fill-rule="evenodd" clip-rule="evenodd" d="M15.5 12.1032C13.0754 12.1032 11.103 14.0756 11.103 16.5C11.103 18.9244 13.0754 20.8968 15.5 20.8968C17.9243 20.8968 19.8966 18.9244 19.8966 16.5C19.8966 14.0755 17.9243 12.1032 15.5 12.1032ZM15.5 19.1867C14.0162 19.1867 12.8131 17.9838 12.8131 16.5C12.8131 15.0162 14.0162 13.8134 15.5 13.8134C16.9838 13.8134 18.1865 15.0162 18.1865 16.5C18.1865 17.9838 16.9838 19.1867 15.5 19.1867Z" fill="#594E4E"/>
<path d="M20.9591 12.1362C20.9591 12.7181 20.4874 13.1898 19.9052 13.1898C19.3235 13.1898 18.8518 12.7181 18.8518 12.1362C18.8518 11.5544 19.3235 11.0827 19.9052 11.0827C20.4874 11.0827 20.9591 11.5544 20.9591 12.1362Z" fill="#594E4E"/>
<path fill-rule="evenodd" clip-rule="evenodd" d="M18.9356 8H12.0644C9.27206 8 7 10.2719 7 13.0644V19.9356C7 22.7281 9.27206 25 12.0644 25H18.9356C21.7283 25 24 22.7281 24 19.9356V13.0644C24 10.2719 21.7283 8 18.9356 8ZM22.2899 19.9356C22.2899 21.788 20.7882 23.2898 18.9356 23.2898H12.0644C10.2118 23.2898 8.71007 21.788 8.71007 19.9356V13.0644C8.71007 11.212 10.2118 9.71023 12.0644 9.71023H18.9356C20.7882 9.71023 22.2899 11.212 22.2899 13.0644V19.9356Z" fill="#594E4E"/>
</svg>
