<svg width="211" height="48" viewBox="0 0 211 48" fill="none" xmlns="http://www.w3.org/2000/svg">
<path d="M41.923 0.713867C29.0173 0.713867 18.5569 11.1743 18.5569 24.08C18.5569 36.9856 29.0173 47.446 41.923 47.446C54.8287 47.446 65.2891 36.9856 65.2891 24.08C65.2891 11.1743 54.8287 0.713867 41.923 0.713867ZM41.923 29.9215C38.6626 29.9215 36.0815 27.3403 36.0815 24.08C36.0815 20.8196 38.6626 18.2384 41.923 18.2384C45.1834 18.2384 47.7645 20.8196 47.7645 24.08C47.7645 27.2045 45.0475 29.9215 41.923 29.9215ZM0.896484 24.08C0.896484 20.8196 3.47762 18.2384 6.73801 18.2384C9.99839 18.2384 12.5795 20.8196 12.5795 24.08C12.5795 27.3403 9.99839 29.9215 6.73801 29.9215C3.47762 29.9215 0.896484 27.2045 0.896484 24.08Z" fill="#DA3743"/>
<path d="M120.988 19.5968C124.52 19.5968 127.101 22.178 127.101 25.7101C127.101 25.8459 127.101 26.3893 127.101 26.5252C127.101 26.9327 126.694 27.0686 126.422 27.0686H117.863C117.863 28.6987 119.222 30.1931 121.124 30.1931C122.482 30.1931 123.433 29.6497 123.977 29.2421C124.248 28.9704 124.656 28.9704 124.792 29.2421L125.878 30.7365C126.15 31.0082 126.15 31.2799 125.878 31.5516C124.656 32.5025 123.026 33.3176 120.852 33.3176C116.912 33.3176 114.06 30.1931 114.06 26.3893C114.331 22.7214 117.048 19.5968 120.988 19.5968ZM123.433 24.895C123.433 23.5365 122.346 22.5855 120.852 22.5855C119.222 22.5855 118.135 23.5365 117.999 24.895H123.433ZM155.765 14.4346H142.18C141.909 14.4346 141.637 14.7063 141.637 14.978V17.2874C141.637 17.5591 141.909 17.8308 142.18 17.8308H147.071V32.6384C147.071 32.9101 147.343 33.1818 147.614 33.1818H150.331C150.603 33.1818 150.875 32.9101 150.875 32.6384V17.8308H155.765C156.037 17.8308 156.309 17.5591 156.309 17.2874V14.978C156.309 14.7063 156.173 14.4346 155.765 14.4346ZM176.279 19.5968C174.92 19.5968 173.562 19.8685 173.018 20.1402V15.1138C173.018 14.8421 172.746 14.4346 172.339 14.4346H170.029C169.758 14.4346 169.35 14.7063 169.35 15.1138V32.6384C169.35 33.0459 169.622 33.3176 170.029 33.3176H170.98H171.252C171.66 33.3176 171.931 33.0459 171.931 32.6384V31.6874C171.931 31.6874 173.426 33.7252 176.414 33.7252C180.082 33.7252 182.663 30.6006 182.663 26.7969C182.663 22.5855 180.218 19.5968 176.279 19.5968ZM175.871 30.1931C174.105 30.1931 173.154 29.1063 172.882 28.2912V23.6723C172.882 23.6723 173.969 22.8572 175.599 22.8572C177.773 22.8572 178.86 24.6233 178.86 26.5252C179.131 28.4271 178.045 30.1931 175.871 30.1931ZM198.558 19.5968C202.09 19.5968 204.671 22.178 204.671 25.7101C204.671 25.8459 204.671 26.3893 204.671 26.5252C204.671 26.9327 204.263 27.0686 203.992 27.0686H195.433C195.433 28.6987 196.792 30.1931 198.694 30.1931C200.052 30.1931 201.003 29.6497 201.546 29.2421C201.818 28.9704 202.226 28.9704 202.362 29.2421L203.448 30.7365C203.72 31.0082 203.72 31.2799 203.448 31.5516C202.226 32.5025 200.596 33.3176 198.422 33.3176C194.482 33.3176 191.629 30.1931 191.629 26.3893C191.765 22.7214 194.618 19.5968 198.558 19.5968ZM201.003 24.895C201.003 23.5365 199.916 22.5855 198.422 22.5855C196.792 22.5855 195.705 23.5365 195.569 24.895H201.003ZM105.773 19.5968C103.056 19.5968 101.561 21.4987 101.426 21.6346V20.5478C101.426 20.1402 101.154 19.8685 100.746 19.8685H99.3878C98.9802 19.8685 98.7085 20.1402 98.7085 20.5478V38.0724C98.7085 38.344 98.9802 38.7516 99.3878 38.7516H101.697C101.969 38.7516 102.376 38.4799 102.376 38.0724V33.0459C102.92 33.3176 104.278 33.5893 105.637 33.5893C109.576 33.5893 112.293 30.4648 112.293 26.661C112.158 22.4497 109.441 19.5968 105.773 19.5968ZM105.093 30.1931C103.463 30.1931 102.376 29.378 102.376 29.378V24.6233C102.648 23.8082 103.599 22.7214 105.365 22.7214C107.403 22.7214 108.49 24.4874 108.49 26.3893C108.49 28.4271 107.267 30.1931 105.093 30.1931ZM136.882 19.5968C134.301 19.5968 133.078 20.9553 132.535 21.4987V20.5478C132.535 20.1402 132.263 19.8685 131.856 19.8685H130.361C130.09 19.8685 129.682 20.1402 129.682 20.5478V32.6384C129.682 33.0459 129.954 33.3176 130.361 33.3176H132.535C133.214 33.3176 133.35 33.1818 133.35 32.6384V25.0308C133.622 24.0799 134.573 22.9931 136.203 22.9931C137.833 22.9931 138.512 24.0799 138.512 25.8459V32.7742C138.512 33.1818 138.784 33.4535 139.192 33.4535H141.501C141.773 33.4535 142.18 33.1818 142.18 32.7742V25.8459C142.316 22.4497 141.094 19.5968 136.882 19.5968ZM161.199 19.5968C159.026 19.5968 156.988 20.1402 156.58 20.2761C156.309 20.4119 156.037 20.5478 156.173 21.0912L156.445 22.5855C156.445 22.9931 156.716 23.2648 157.26 23.1289C158.075 22.8572 159.841 22.5855 161.063 22.5855C162.422 22.5855 162.965 23.4006 162.965 25.0308C162.965 25.0308 161.743 24.6233 160.384 24.6233C156.988 24.6233 155.086 26.3893 155.086 28.8346C155.086 31.6874 156.988 33.4535 159.569 33.4535C161.607 33.4535 162.965 32.5025 163.78 31.8233V32.5025C163.78 32.9101 164.052 33.1818 164.46 33.1818H164.731C164.731 33.1818 164.731 33.1818 164.867 33.1818H165.818C166.226 33.1818 166.497 32.9101 166.497 32.5025V25.3025C166.226 21.7704 165.275 19.5968 161.199 19.5968ZM162.694 29.378C162.558 29.9214 161.471 30.7365 160.248 30.7365C159.026 30.7365 158.346 29.9214 158.346 28.8346C158.346 27.612 159.161 26.9327 160.656 26.9327C161.743 26.9327 162.558 27.3403 162.558 27.3403V29.378H162.694ZM86.4821 14.4346C81.184 14.4346 76.9727 18.7817 76.9727 24.0799C76.9727 29.378 81.184 33.5893 86.4821 33.5893C91.9161 33.5893 96.1274 29.378 96.1274 24.0799C96.1274 18.7817 91.7802 14.4346 86.4821 14.4346ZM86.4821 18.1025C89.6066 18.1025 92.3236 20.8195 92.3236 23.944C92.3236 27.2044 89.7425 29.7855 86.4821 29.7855C83.2217 29.7855 80.6406 27.2044 80.6406 23.944C80.6406 20.8195 83.3576 18.1025 86.4821 18.1025ZM189.456 33.1818C189.863 33.1818 190.135 32.9101 190.135 32.5025V30.1931C190.135 29.7855 189.863 29.5138 189.456 29.5138H189.32C189.048 29.5138 188.777 29.2421 188.777 28.9704V28.8346V15.1138C188.777 14.8421 188.505 14.4346 188.097 14.4346H185.788C185.516 14.4346 185.109 14.7063 185.109 15.1138V30.4648V30.8723C185.109 31.9591 186.196 33.1818 187.418 33.1818H189.456ZM205.486 20.0044H204.535V19.5968H206.845V20.0044H205.894V22.3138H205.35V20.0044H205.486ZM207.388 19.5968H208.067L208.475 20.5478L208.746 21.227L209.018 20.5478L209.426 19.5968H210.105V22.3138H209.562V21.0912V20.1402L208.882 21.9063H208.475L207.796 20.1402V21.0912V22.3138H207.252V19.5968H207.388Z" fill="#212120"/>
</svg>
