<svg width="140" height="40" viewBox="0 0 140 40" fill="none" xmlns="http://www.w3.org/2000/svg">
<path d="M11.4711 32.4434H28.3677C28.5659 32.4434 28.5659 32.5384 28.3677 32.6335C26.4907 33.4899 23.7237 36.1548 23.7237 36.1548C21.8466 37.9625 20.3644 39.1049 17.1039 39.1049H0.89825C0.799542 39.1049 0.799542 38.9147 0.89825 38.9147C2.67659 37.9625 5.34488 35.2984 5.34488 35.2984C6.43147 34.061 8.70414 32.4434 11.4711 32.4434ZM122.537 32.4434H139.533C139.631 32.4434 139.631 32.5384 139.533 32.6335C137.556 33.4899 134.889 36.1548 134.889 36.1548C132.912 37.9625 131.43 39.1049 128.268 39.1049H112.062C111.964 39.1049 111.964 38.9147 112.062 38.9147C113.841 37.9625 116.509 35.2984 116.509 35.2984C117.596 34.061 119.77 32.4434 122.537 32.4434ZM39.2375 32.4434H56.1341C56.3323 32.4434 56.3323 32.5384 56.1341 32.6335C54.257 33.4899 51.49 36.1548 51.49 36.1548C49.613 37.9625 48.1308 39.1049 44.8694 39.1049H28.7633C28.5659 39.1049 28.5659 38.9147 28.6646 38.9147C30.443 37.9625 33.1113 35.2984 33.1113 35.2984C34.1978 34.061 36.4705 32.4434 39.2375 32.4434ZM67.0039 32.4434H83.9012C84.0987 32.4434 84.0987 32.5384 83.9012 32.6335C82.0234 33.4899 79.2564 36.1548 79.2564 36.1548C77.3793 37.9625 75.8971 39.1049 72.7353 39.1049H56.5297C56.431 39.1049 56.431 38.9147 56.431 38.9147C58.308 37.9625 60.8776 35.2984 60.8776 35.2984C61.9642 34.061 64.2369 32.4434 67.0039 32.4434ZM94.7702 32.4434H111.766C111.865 32.4434 111.865 32.5384 111.668 32.6335C109.79 33.4899 107.023 36.1548 107.023 36.1548C105.146 37.9625 103.664 39.1049 100.502 39.1049H84.2961C84.1974 39.1049 84.1974 38.9147 84.2961 38.9147C86.0752 37.9625 88.7427 35.2984 88.7427 35.2984C89.7306 34.061 92.0032 32.4434 94.7702 32.4434Z" fill="#0054A4"/>
<path d="M99.4147 0.657227C88.7431 0.657227 81.6282 5.98628 81.6282 14.0753C81.6282 21.4989 88.1501 26.4469 97.8338 26.4469C100.996 26.4469 103.763 26.0666 107.023 25.2103V19.0241C104.751 21.4989 101.984 22.4503 99.0199 22.4503C93.2884 22.4503 89.3362 18.834 89.3362 13.5041C89.3362 8.27016 93.3872 4.46369 99.1186 4.46369C102.182 4.46369 104.652 5.60601 106.628 7.60393V1.32269C104.553 0.942426 101.984 0.657227 99.4147 0.657227ZM19.7718 5.03485C23.7241 5.03485 28.4676 5.79614 30.4434 7.4138V1.51359H2.38086V7.4138C4.35661 5.79614 8.60583 5.12992 13.1512 5.12992V21.308C13.1512 23.6877 12.9537 24.3531 11.9659 25.5905H20.9578C19.9692 24.3531 19.7718 23.6877 19.7718 21.308V5.03485ZM48.4273 10.84C46.8464 11.4112 43.882 11.5062 42.3997 11.5062H40.0284V5.12992H43.1902C46.0559 5.12992 50.8982 5.70108 52.7752 7.31873V1.51359H32.3212C33.3091 2.65515 33.5065 3.4172 33.5065 5.70108V21.308C33.5065 23.6877 33.3091 24.3531 32.4199 25.5905H54.1587V19.6903C51.1943 21.8791 45.4629 21.8791 43.1902 21.8791H40.0284V15.1226H42.301C43.882 15.1226 46.7477 15.3127 48.4273 15.8838V10.84ZM78.7633 2.27488C75.5019 1.22763 71.2535 0.657227 67.9922 0.657227C62.0633 0.657227 56.3327 2.46501 56.3327 8.55536C56.3327 19.0241 74.1192 13.5041 74.1192 19.9755C74.1192 22.0693 70.9566 22.9264 68.3878 22.9264C63.8424 22.9264 60.6806 22.1643 56.7275 19.6903V25.0194C59.6919 25.9716 63.7437 26.542 68.0909 26.542C74.2179 26.542 79.9486 24.8292 79.9486 18.6438C79.9486 7.60393 62.2615 12.5527 62.2615 7.22366C62.2615 5.03485 65.1272 4.27356 67.5973 4.27356C71.747 4.27356 76.2924 5.51019 78.7633 7.88989V2.27488ZM124.414 1.03749C114.83 1.03749 108.012 6.36654 108.012 13.8852C108.012 21.308 114.138 26.1617 123.13 26.1617C132.814 26.1617 139.533 21.0228 139.533 13.4091C139.533 5.98628 133.407 1.03749 124.414 1.03749ZM123.723 22.5454C118.585 22.5454 115.323 18.548 115.323 13.6C115.323 8.65118 118.585 4.65383 123.723 4.65383C128.762 4.65383 132.122 8.65118 132.122 13.6C132.122 18.548 128.762 22.5454 123.723 22.5454Z" fill="#F02E24"/>
</svg>
