<svg width="145" height="28" viewBox="0 0 145 28" fill="none" xmlns="http://www.w3.org/2000/svg">
<path fill-rule="evenodd" clip-rule="evenodd" d="M12 19.0235L9.83334 0.939748L0.5 1.77696L4.66667 27.0607H15.1667C20 21.0328 25.5 12.3258 25.5 5.46068C25.5 3.28393 25 1.60952 24.1667 0.102539L15.8333 1.77696C16.3333 3.11649 16.6667 4.62347 16.6667 6.46533C16.6667 10.149 14.1667 15.6746 12 19.0235Z" fill="#3D95CE"/>
<path fill-rule="evenodd" clip-rule="evenodd" d="M41.3333 0.4375C31.6667 0.4375 27 8.80959 27 16.8468C27 22.8747 29.8333 27.898 38 27.898C41.1667 27.898 44.5 27.2282 46.5 26.2235L47.6667 18.6887C44.6667 20.1956 42.5 20.8654 40.1667 20.8654C38 20.8654 36.3333 19.6933 36.3333 16.8468C41.1667 16.8468 49.8333 14.6701 49.8333 8.13983C49.5 3.45145 46.5 0.4375 41.3333 0.4375ZM42.1667 8.30727C42.1667 10.6515 37.8333 11.4887 36.1667 11.4887C36.5 8.47471 38.6667 6.63285 40.3333 6.63285C41.3333 6.46541 42.1667 7.30262 42.1667 8.30727Z" fill="#3D95CE"/>
<path fill-rule="evenodd" clip-rule="evenodd" d="M54.333 0.939826L50.333 27.2282H59.333L62.1663 8.80959C62.9997 8.30727 64.1663 7.80494 65.333 7.80494C66.1663 7.80494 66.833 8.13983 66.833 9.14448C66.833 9.6468 66.6663 10.484 66.6663 10.9863L64.1663 27.2282H73.1663L75.9997 9.6468C76.1663 8.64215 76.333 7.30262 76.333 6.29797C76.333 2.78169 74.833 0.4375 70.1663 0.4375C66.6663 0.4375 64.333 1.77704 62.4997 2.94913L62.333 0.772385L54.333 0.939826Z" fill="#3D95CE"/>
<path fill-rule="evenodd" clip-rule="evenodd" d="M81.833 0.939748L77.833 27.2281H86.9997L89.833 8.80951C90.6663 8.30719 91.833 7.80486 92.9997 7.80486C93.833 7.80486 94.4997 8.13975 94.4997 9.31184C94.4997 9.64673 94.333 10.149 94.333 10.6514L91.6663 27.0607H100.666L103.5 8.64207C104.333 8.13975 105.5 7.63742 106.666 7.63742C107.5 7.63742 108.166 7.97231 108.166 9.1444C108.166 9.47928 108 9.98161 108 10.4839L105.5 26.8932H114.5L117.333 9.31184C117.5 8.30719 117.666 6.96766 117.666 5.96301C117.666 2.44673 116.166 0.102539 111.5 0.102539C108.166 0.102539 105.833 1.10719 103.166 2.94905C102.166 1.27463 100.333 0.102539 97.4997 0.102539C94.333 0.102539 91.833 1.44207 89.9997 2.78161L89.6664 0.604865H81.9997L81.833 0.939748Z" fill="#3D95CE"/>
<path fill-rule="evenodd" clip-rule="evenodd" d="M134.333 0.4375C124.166 0.4375 119.833 8.13983 119.833 16.5119C119.833 22.8747 122.333 27.898 130 27.898C140.333 27.898 144.5 19.5259 144.5 11.1538C144.666 4.95843 141.833 0.4375 134.333 0.4375ZM129 17.0142C129 13.8328 129.666 7.47006 133.333 7.47006C134.833 7.47006 135.5 8.80959 135.5 11.1538C135.5 14.3352 134.666 21.0328 131.5 21.0328C129.666 20.8654 129 19.3584 129 17.0142Z" fill="#3D95CE"/>
</svg>
