<svg width="211" height="47" viewBox="0 0 211 47" fill="none" xmlns="http://www.w3.org/2000/svg">
<path d="M204.1 37.5692L204.56 35.481C204.008 36.2629 203.395 36.8484 202.718 37.241C202.036 37.6319 201.29 37.8249 200.474 37.8249C199.134 37.8249 198.207 37.323 197.692 36.3176C197.176 35.3121 197.102 33.9849 197.462 32.3359C197.847 30.5953 198.574 29.1458 199.65 27.9843C200.728 26.8244 202.004 26.2437 203.476 26.2437C203.873 26.2437 204.229 26.2855 204.541 26.3708C204.851 26.456 205.146 26.5848 205.411 26.7617C205.678 26.9371 205.968 27.2251 206.286 27.6208L207.601 21.6411H210.575L207.076 37.5692H204.1V37.5692ZM205.895 29.3984C205.593 28.9254 205.278 28.6101 204.954 28.4412C204.629 28.2723 204.28 28.187 203.905 28.187C203.12 28.187 202.443 28.5779 201.883 29.3534C201.32 30.1272 200.926 31.0393 200.696 32.0882C200.468 33.121 200.472 33.9463 200.699 34.5608C200.93 35.1737 201.387 35.481 202.08 35.481C202.516 35.481 202.986 35.325 203.485 35.0129C203.984 34.6992 204.466 34.2889 204.933 33.779L205.895 29.3984H205.895ZM184.901 37.5692L187.332 26.5011H190.305L189.85 28.5779C190.573 27.7285 191.304 27.1236 192.033 26.7729C192.763 26.4206 193.463 26.2437 194.135 26.2437C195.01 26.2437 195.697 26.5268 196.206 27.0866C196.712 27.6481 196.83 28.5345 196.563 29.7411L194.843 37.5692H191.87L193.427 30.4746C193.564 29.8714 193.596 29.4611 193.534 29.2456C193.468 29.0316 193.352 28.8659 193.184 28.7565C193.017 28.6454 192.814 28.5876 192.58 28.5876C192.169 28.5876 191.708 28.7259 191.204 28.9978C190.699 29.2713 190.099 29.8038 189.406 30.5953L187.874 37.5692H184.901ZM179.878 36.3961C179.359 36.8095 178.92 37.1055 178.566 37.2857C178.21 37.4659 177.85 37.601 177.488 37.6911C177.127 37.7812 176.754 37.8247 176.373 37.8247C175.385 37.8247 174.661 37.519 174.203 36.906C173.744 36.2883 173.611 35.5322 173.809 34.6409C174.047 33.5518 174.692 32.6429 175.739 31.9125C176.785 31.1838 178.307 30.8186 180.298 30.8186H181.091L181.315 29.8163C181.46 29.1423 181.373 28.6886 181.048 28.4537C180.723 28.2189 180.274 28.103 179.697 28.103C178.556 28.103 177.322 28.4312 175.992 29.0844L176.445 27.0155C177.903 26.5007 179.304 26.2433 180.639 26.2433C181.458 26.2433 182.161 26.356 182.761 26.5764C183.353 26.8 183.791 27.1458 184.077 27.614C184.36 28.0789 184.399 28.7771 184.194 29.7053L183.117 34.6072C182.986 35.2056 183.001 35.574 183.158 35.7107C183.318 35.8443 183.49 35.9086 183.675 35.9086C183.786 35.9086 183.923 35.8983 184.093 35.8781L183.786 37.5464C183.113 37.7314 182.533 37.8247 182.044 37.8247C181.489 37.8247 181.037 37.7361 180.679 37.5496C180.317 37.3678 180.094 36.9833 180.009 36.3961H179.878L179.878 36.3961ZM180.218 34.7986L180.716 32.5351H180.012C179.042 32.5351 178.279 32.7105 177.727 33.0579C177.176 33.4086 176.843 33.8414 176.725 34.3626C176.63 34.7889 176.701 35.1396 176.926 35.4147C177.155 35.6866 177.465 35.825 177.851 35.825C178.2 35.825 178.574 35.7381 178.971 35.5644C179.367 35.3938 179.783 35.1364 180.218 34.7986ZM161.516 37.5692L164.796 22.6417H170.376C171.515 22.6417 172.353 22.7865 172.888 23.0712C173.422 23.356 173.801 23.7904 174.016 24.3711C174.235 24.9519 174.264 25.6114 174.103 26.345C173.912 27.2202 173.476 28.0471 172.801 28.8225C172.127 29.6027 171.284 30.1947 170.276 30.6049L173.635 37.5692H169.849L167.477 31.4785H165.773L164.431 37.5692H161.516ZM166.223 29.4161H166.941C168.217 29.4161 169.166 29.141 169.782 28.5844C170.396 28.0278 170.781 27.3955 170.935 26.6925C171.069 26.0828 170.976 25.5986 170.659 25.2382C170.335 24.8795 169.565 24.6993 168.344 24.6993H167.259L166.223 29.4161ZM151.136 37.5692L154.634 21.6411H157.61L154.109 37.5692H151.136ZM145.75 37.5692L149.248 21.6411H152.226L148.723 37.5692H145.75ZM138.68 37.8253C137.484 37.8253 136.508 37.592 135.757 37.1255C135 36.6573 134.5 35.9704 134.249 35.0615C133.998 34.1525 133.997 33.1455 134.24 32.0338C134.483 30.9334 134.924 29.9264 135.567 29.0239C136.206 28.1214 137.012 27.4312 137.976 26.9567C138.938 26.4837 140.022 26.244 141.224 26.244C142.43 26.244 143.413 26.4837 144.166 26.9567C144.916 27.4312 145.416 28.1214 145.664 29.0239C145.91 29.9264 145.913 30.9334 145.67 32.0338C145.429 33.1455 144.983 34.1525 144.333 35.0615C143.683 35.9704 142.877 36.6573 141.92 37.1255C140.96 37.592 139.882 37.8253 138.68 37.8253H138.68ZM139.087 35.9688C139.932 35.9688 140.648 35.5956 141.237 34.8507C141.824 34.1059 142.244 33.168 142.493 32.0338C142.741 30.9093 142.733 29.973 142.472 29.2234C142.212 28.4769 141.658 28.1037 140.815 28.1037C139.977 28.1037 139.268 28.4769 138.674 29.2234C138.082 29.973 137.668 30.9093 137.417 32.0338C137.173 33.168 137.175 34.1059 137.438 34.8507C137.701 35.5956 138.251 35.9688 139.087 35.9688ZM123.784 37.2273L124.266 35.0249C125.608 35.6523 126.802 35.9677 127.851 35.9677C128.411 35.9677 128.882 35.8502 129.265 35.6121C129.653 35.3772 129.883 35.078 129.963 34.7144C130.034 34.3991 129.964 34.1321 129.768 33.9181C129.561 33.709 129.229 33.5031 128.763 33.302L127.844 32.8982C126.898 32.4815 126.228 32.0214 125.841 31.5163C125.455 31.0176 125.349 30.366 125.526 29.5665C125.738 28.6029 126.285 27.8098 127.172 27.184C128.055 26.5566 129.265 26.2429 130.801 26.2429C131.7 26.2429 132.74 26.3796 133.925 26.6434L133.465 28.7332C132.363 28.3133 131.422 28.1026 130.639 28.1026C130.023 28.1026 129.538 28.2104 129.183 28.4211C128.827 28.635 128.613 28.9085 128.541 29.2448C128.483 29.507 128.533 29.7386 128.691 29.9397C128.837 30.1424 129.151 30.3403 129.622 30.5366L130.413 30.8696C131.72 31.4149 132.54 31.9442 132.868 32.4542C133.19 32.9738 133.272 33.5932 133.113 34.3139C132.907 35.2485 132.326 36.0674 131.369 36.7704C130.413 37.4734 129.17 37.8257 127.64 37.8257C126.337 37.8257 125.05 37.6246 123.784 37.2273ZM116.312 37.5692L118.744 26.5011H121.717L121.26 28.5876C121.772 27.8749 122.385 27.3038 123.094 26.8823C123.807 26.4576 124.54 26.2437 125.301 26.2437C125.482 26.2437 125.668 26.2553 125.848 26.2726L125.26 28.9608C124.875 28.808 124.5 28.7324 124.132 28.7324C123.537 28.7324 122.969 28.882 122.422 29.1796C121.87 29.4804 121.341 29.9325 120.832 30.5326L119.286 37.5692H116.312ZM114.701 37.1972C113.2 37.6155 111.817 37.8246 110.557 37.8246C109.362 37.8246 108.363 37.601 107.563 37.1554C106.764 36.7082 106.228 36.0084 105.951 35.0576C105.676 34.1052 105.663 33.0708 105.905 31.9544C106.135 30.9183 106.55 29.9611 107.153 29.0844C107.756 28.2092 108.508 27.5142 109.402 27.0059C110.3 26.4991 111.32 26.2433 112.47 26.2433C113.878 26.2433 114.904 26.697 115.546 27.6011C116.188 28.5052 116.238 30.188 115.699 32.6493H108.903C108.807 33.3958 108.844 33.9894 109.019 34.4189C109.193 34.8501 109.481 35.1927 109.886 35.4453C110.289 35.6979 110.876 35.825 111.648 35.825C112.637 35.825 113.809 35.5853 115.16 35.1107L114.701 37.1972H114.701ZM109.216 30.9634H113.123C113.348 29.9402 113.344 29.2066 113.104 28.7658C112.869 28.3218 112.484 28.103 111.958 28.103C111.382 28.103 110.855 28.3444 110.38 28.8302C109.902 29.316 109.516 30.0271 109.216 30.9634ZM92.7192 40.9718L93.4303 38.7984C94.5242 39.3695 95.6214 39.6558 96.7185 39.6558C97.7546 39.6558 98.5782 39.437 99.196 39.0043C99.8105 38.5683 100.242 37.7913 100.485 36.6732L100.818 35.1659C100.341 35.8769 99.7478 36.4528 99.0383 36.8985C98.3273 37.3457 97.5535 37.5693 96.7137 37.5693C95.8579 37.5693 95.1549 37.3537 94.5998 36.9226C94.048 36.4931 93.6909 35.8464 93.5332 34.9825C93.3788 34.117 93.4142 33.1566 93.6459 32.0932C94.0143 30.4314 94.735 29.043 95.816 27.9233C96.8971 26.8037 98.1793 26.2438 99.6609 26.2438C100.053 26.2438 100.409 26.2857 100.718 26.3644C101.027 26.4432 101.315 26.5655 101.575 26.7344C101.841 26.905 102.142 27.1897 102.479 27.5919L103.031 26.5012H105.695L103.842 34.9357C103.353 37.1638 102.808 38.6664 102.208 39.437C101.611 40.2076 100.826 40.7899 99.8556 41.1825C98.8903 41.575 97.8286 41.7729 96.6815 41.7729C95.4026 41.7729 94.0802 41.5058 92.7192 40.9717V40.9718ZM101.199 33.4268L102.101 29.3293C101.783 28.8419 101.458 28.5169 101.133 28.3512C100.808 28.1871 100.475 28.1035 100.135 28.1035C99.4003 28.1035 98.7327 28.4461 98.1391 29.1363C97.5454 29.8232 97.1207 30.7546 96.8633 31.929C96.6413 32.9345 96.6462 33.7244 96.8749 34.3019C97.1034 34.8778 97.5506 35.1658 98.215 35.1658C98.6928 35.1658 99.1802 35.0226 99.6773 34.7314C100.171 34.4403 100.683 34.0059 101.199 33.4268H101.199ZM81.0311 37.5691L83.4635 26.501H86.4397L85.9828 28.5779C86.7051 27.7285 87.4355 27.1236 88.1643 26.7729C88.893 26.4206 89.5944 26.2436 90.2685 26.2436C91.142 26.2436 91.829 26.5267 92.3357 27.0866C92.8409 27.648 92.9631 28.5344 92.6961 29.741L90.9747 37.5691H88.0002L89.559 30.4746C89.6942 29.8713 89.728 29.4611 89.662 29.2455C89.5993 29.0315 89.4834 28.8658 89.3177 28.7564C89.1472 28.6454 88.9461 28.5875 88.7112 28.5875C88.2994 28.5875 87.8409 28.7259 87.3358 28.9978C86.8322 29.2712 86.2322 29.8037 85.5388 30.5952L84.0073 37.5691H81.0311ZM75.607 37.5691L78.884 22.6417H81.9759L78.6957 37.5691H75.607ZM74.2439 12.6941C71.9177 1.23675 53.4912 -3.31918 33.078 2.5173C28.8551 3.72546 24.8815 5.28915 21.2506 7.10219H23.749C26.664 5.57229 29.8493 4.27565 33.2373 3.30719C50.1837 -1.53992 65.7305 3.46645 67.9698 14.4895C69.2536 20.807 65.8753 27.7294 59.569 33.4034L58.9754 36.2267C69.5577 29.4475 75.8237 20.482 74.2439 12.6941ZM50.8265 39.4244C47.9131 40.9543 44.7294 42.2493 41.3382 43.2178C24.3967 48.0649 8.84664 43.0601 6.6105 32.0403C5.32673 25.7083 8.71473 18.7747 15.0419 13.0975L15.6339 10.2822C5.03555 17.0662 -1.24333 26.0429 0.338051 33.834C2.66267 45.2914 21.0939 49.8457 41.5007 44.0093C45.7236 42.8011 49.6956 41.2374 53.3297 39.4244H50.8265ZM42.8998 20.3152L44.2061 14.1103C47.5603 14.1442 50.2276 14.0058 49.6211 16.8773C48.8409 20.5903 47.5362 20.246 42.8998 20.3152ZM27.5863 37.5753H39.2673L41.5887 26.5362C46.0127 26.393 47.5137 26.8949 47.0423 29.1359L45.2663 37.5753H56.8974L58.8456 28.3058C59.1062 27.0735 59.7433 24.0458 54.6484 22.6752C59.8269 21.266 60.9498 18.3027 61.3826 16.2467C62.3912 11.4446 58.4595 8.95271 52.4026 8.95271H33.6078L27.5863 37.5753ZM17.7085 8.95207H30.1054L24.0839 37.5746H11.687L17.7085 8.95207Z" fill="#D52B1E"/>
</svg>
