<svg width="235" height="40" viewBox="0 0 235 40" fill="none" xmlns="http://www.w3.org/2000/svg">
<path d="M1.26953 38.3156H212.77L233.941 1.89453H1.26953V38.3156Z" fill="#FFD20A"/>
<path d="M41.3871 14.8636C40.5403 14.232 39.4817 14.0215 38.4232 14.0215C37.1529 14.0215 36.0943 14.8635 36.0943 15.7056C36.0943 16.3372 36.5178 16.7584 37.3646 16.9689L38.8466 17.3898C40.5403 18.0214 41.5989 18.8636 41.5989 20.3372C41.5989 23.2846 39.0583 25.6004 35.0358 25.6004C33.1304 25.6004 31.6484 25.1794 30.5898 24.3373L32.0718 22.232C33.1304 22.8636 34.1889 23.2847 35.6709 23.2847C37.3646 23.2847 38.4232 22.4425 38.4232 20.9688C38.4232 20.3372 37.9998 19.9161 36.9412 19.4951L35.4592 19.0741C33.9772 18.6531 32.9187 17.8109 32.9187 16.3372C32.9187 13.6004 35.4592 11.4951 38.6349 11.4951C40.3286 11.4951 41.8106 11.9162 42.8691 12.7584L41.3871 14.8636Z" fill="#594E4E"/>
<path d="M48.742 17.5061H47.0483L45.9898 22.5588C45.9898 22.9799 45.9898 23.1903 45.9898 23.4009C45.9898 24.0324 46.2015 24.0325 46.8366 24.0325C47.0483 24.0325 47.4717 24.0325 47.8952 23.8219V25.2956C47.0483 25.5062 46.4132 25.7167 45.778 25.7167C44.2961 25.7167 43.4492 25.0852 43.4492 24.0325C43.4492 23.6115 43.4492 23.1904 43.6609 22.7693L44.7195 17.2957H43.6609L44.0844 15.6115H45.1429C45.3546 14.5589 45.5663 13.9272 45.778 13.2956L48.5303 12.6641C48.3186 13.5062 47.8952 14.5589 47.6835 15.6115H50.0123L48.742 17.5061Z" fill="#594E4E"/>
<path d="M55.0178 17.4361C54.3826 17.4361 53.9592 17.4362 53.1124 18.2783C52.2655 19.3309 51.8421 21.2257 51.8421 22.4888C51.8421 23.3309 52.0538 23.7519 52.6889 23.7519C53.5358 23.7519 54.3826 22.9098 54.5943 22.2782L55.6529 17.6467C55.6529 17.6467 55.2295 17.4361 55.0178 17.4361ZM57.9817 18.6994L57.1349 22.4888C56.9232 23.3309 57.1349 23.9624 57.5583 24.3835L55.4412 26.0678C55.0178 25.8573 54.8061 25.2256 54.5943 24.8046C53.7475 25.6467 53.1124 26.0678 51.8421 26.0678C49.9367 26.0678 49.0898 25.0152 49.0898 22.9099C49.0898 20.5941 49.9367 18.4888 51.207 17.2257C52.2655 16.173 53.5358 15.752 55.2295 15.752C56.4998 15.752 57.77 15.9625 58.6169 16.3835C58.4052 16.8046 58.1934 17.8573 57.9817 18.6994Z" fill="#594E4E"/>
<path d="M63.0999 15.3994C63.3116 15.8205 63.3116 16.6625 63.3116 17.0836C64.1584 16.2415 65.217 15.6099 66.699 15.6099C67.9692 15.6099 68.6044 16.452 68.6044 17.5047C68.6044 17.9257 68.6044 18.5573 68.3927 18.9784L66.9107 25.7153H64.3701L65.8521 19.1889C65.8521 18.7678 66.0638 18.5574 66.0638 18.3468C66.0638 17.9258 65.8521 17.7152 65.4287 17.7152C64.7936 17.7152 64.1584 18.1362 63.3116 19.1889L61.8296 25.7153H59.2891L60.771 18.9784C60.9828 17.9258 60.9828 17.0836 60.771 16.452L63.0999 15.3994Z" fill="#594E4E"/>
<path d="M74.5041 14.2565L73.0222 21.6249C72.8104 22.8881 72.5987 23.3092 72.5987 23.5197C72.5987 23.9408 72.8104 24.1513 73.0222 24.1513H73.2339L73.4456 25.625C73.0222 25.8355 72.387 25.8355 71.7519 25.8355C70.2699 25.8355 69.6348 24.9934 69.6348 24.1513C69.6348 23.7302 69.8465 23.0986 69.8465 22.2565L71.3285 14.8881C71.5402 13.6249 71.7519 12.7829 71.5402 11.9408L74.2924 11.0986C74.9276 11.5197 74.9276 12.9934 74.5041 14.2565Z" fill="#594E4E"/>
<path d="M79.0811 19.69C80.1397 19.69 81.4099 19.2689 81.4099 18.2163C81.4099 17.5847 81.1982 17.1637 80.3514 17.1637C79.2928 17.1637 78.6577 17.7953 78.2343 19.4795C78.446 19.6901 78.8694 19.69 79.0811 19.69ZM82.8919 24.5321C81.6217 25.3742 80.3514 25.7953 78.8694 25.7953C76.5406 25.7953 75.0586 24.5322 75.0586 22.2164C75.0586 20.1111 75.9054 18.0059 77.3874 16.7427C78.446 15.9006 79.5045 15.4795 80.7748 15.4795C82.6802 15.4795 84.1622 16.3216 84.1622 18.2163C84.1622 20.111 82.4685 21.5848 79.0811 21.5848C78.446 21.5848 77.8108 21.3742 77.8108 21.3742C77.8108 21.3742 77.8108 22.0058 77.8108 22.2164C77.8108 23.269 78.446 23.9005 79.5045 23.9005C80.3514 23.9005 81.4099 23.4795 82.2568 22.8479L82.8919 24.5321Z" fill="#594E4E"/>
<path d="M88.0975 15.5068L88.5209 21.1911C88.5209 21.8227 88.5209 23.2963 88.5209 23.2963C88.5209 23.2963 89.1561 21.6121 89.7912 20.3489L92.3317 15.7173H95.084L89.3678 25.8225C88.3092 27.7173 87.6741 28.5595 86.8272 29.191C85.9804 29.6121 85.1335 30.0331 84.2867 30.0331L83.8633 28.3489C84.4984 28.1384 85.1335 27.9279 85.557 27.7173C86.4038 27.2963 86.6155 26.8752 87.2507 25.8225H86.6155C86.6155 25.191 86.4038 23.9278 86.4038 23.0857L85.557 16.1384L88.0975 15.5068Z" fill="#594E4E"/>
<path d="M99.21 17.6085H100.904C101.751 17.6085 101.962 17.398 102.386 17.1874C102.809 16.9769 103.233 16.3453 103.233 15.7137C103.233 14.8716 102.809 14.4506 101.751 14.4506H100.057L99.21 17.6085ZM98.1515 23.5032H99.8452C100.48 23.5032 100.904 23.2927 101.327 23.0822C101.962 22.6611 102.386 21.8189 102.386 21.1874C102.386 20.3453 101.962 19.9243 100.692 19.9243H98.7866L98.1515 23.5032ZM102.597 12.1348C104.715 12.1348 106.197 13.1874 106.197 15.0822C106.197 16.3453 105.35 17.819 103.444 18.4506C104.715 18.6611 105.561 19.7137 105.561 20.9769C105.561 21.819 105.138 23.0822 104.291 24.1348C103.233 25.1874 102.174 25.6085 100.057 25.6085H95.1875L98.1515 12.1348H102.597Z" fill="#594E4E"/>
<path d="M111.49 14.2565L110.008 21.6249C109.797 22.8881 109.585 23.3092 109.585 23.5197C109.585 23.9408 109.797 24.1513 110.008 24.1513H110.22L110.432 25.625C110.008 25.8355 109.373 25.8355 108.738 25.8355C107.256 25.8355 106.621 24.9934 106.621 24.1513C106.621 23.7302 106.833 23.0986 106.833 22.2565L108.315 14.8881C108.526 13.6249 108.738 12.7829 108.526 11.9408L111.279 11.0986C111.702 11.5197 111.702 12.9934 111.49 14.2565Z" fill="#594E4E"/>
<path d="M118.013 17.4361C117.378 17.4361 116.955 17.4362 116.108 18.2783C115.261 19.3309 114.837 21.2257 114.837 22.4888C114.837 23.3309 115.049 23.7519 115.684 23.7519C116.531 23.7519 117.378 22.9098 117.59 22.2782L118.648 17.6467C118.648 17.6467 118.225 17.4361 118.013 17.4361ZM120.977 18.6994L120.13 22.4888C119.919 23.3309 120.13 23.9624 120.554 24.3835L118.437 26.0678C118.013 25.8573 117.801 25.2256 117.59 24.8046C116.955 25.6467 116.108 26.0678 115.049 26.0678C113.144 26.0678 112.297 25.0152 112.297 22.9099C112.297 20.5941 113.144 18.4888 114.414 17.2257C115.473 16.173 116.743 15.752 118.437 15.752C119.707 15.752 120.977 15.9625 121.824 16.3835C121.4 16.8046 121.189 17.8573 120.977 18.6994Z" fill="#594E4E"/>
<path d="M129.278 18.2896C128.854 17.8685 128.219 17.658 127.796 17.658C127.372 17.658 126.949 17.8685 126.525 18.2896C125.89 19.1317 125.043 21.237 125.043 22.7107C125.043 23.7633 125.467 24.1843 126.314 24.1843C126.949 24.1843 127.796 23.7632 128.431 23.1316L129.278 24.8159C128.219 25.658 127.16 26.0791 125.678 26.0791C123.561 26.0791 122.291 24.8159 122.291 22.7107C122.291 20.1844 123.35 18.079 124.832 16.8158C125.678 15.9737 126.737 15.5527 128.007 15.5527C128.854 15.5527 129.913 15.9737 130.548 16.8158L129.278 18.2896Z" fill="#594E4E"/>
<path d="M141.379 15.6526L137.356 19.8631L140.108 25.5472H136.933L134.815 19.8631L138.203 15.6526H141.379ZM136.086 11.2314C136.297 11.6525 136.297 12.9156 135.662 15.0209L133.334 25.7578H130.793L133.122 14.8104C133.334 13.3367 133.545 12.7052 133.334 12.0736L136.086 11.2314Z" fill="#594E4E"/>
<path d="M148.416 15.4346C148.416 14.803 147.992 14.382 147.357 14.382C146.51 14.382 145.875 15.0136 145.875 16.0663C145.875 16.4873 146.087 16.9083 146.722 17.5399C147.781 17.1188 148.416 16.2767 148.416 15.4346ZM143.97 22.5925C143.97 23.4346 144.605 24.0663 145.875 24.0663C146.722 24.0663 147.569 23.8558 147.992 23.4347L145.452 20.4873C144.393 20.6978 143.97 21.5399 143.97 22.5925ZM152.438 19.0136C152.227 20.2767 151.591 21.7504 150.956 22.803L153.285 25.54H149.898L149.263 24.6978C148.416 25.3294 147.146 25.7504 145.24 25.7504C142.488 25.7504 141.006 24.4873 141.006 22.5925C141.006 20.9083 142.064 19.4346 144.182 18.5925C143.335 17.7504 143.123 17.1189 143.123 16.2768C143.123 14.1715 145.028 12.4873 147.781 12.4873C149.686 12.4873 150.956 13.5399 150.956 14.803C150.956 16.2767 150.321 17.3293 147.992 18.5925L147.781 18.8031L149.474 20.9084C149.898 20.2768 150.109 19.2241 150.109 18.8031H152.438V19.0136Z" fill="#594E4E"/>
<path d="M157.782 23.2936H159.052C160.322 23.2936 161.169 22.6621 161.593 21.82C162.863 19.9253 163.075 17.1885 163.075 16.5569C163.075 15.2937 162.651 14.241 160.958 14.241H159.687L157.782 23.2936ZM160.534 12.1357C162.863 12.1357 164.133 12.3463 164.98 13.399C165.615 14.2411 166.039 15.0831 166.039 16.7673C166.039 18.8726 165.192 21.82 163.498 23.7147C162.016 25.1884 160.746 25.82 157.782 25.82H154.395L157.358 12.3463H160.534V12.1357Z" fill="#594E4E"/>
<path d="M170.857 19.69C171.915 19.69 173.185 19.2689 173.185 18.2163C173.185 17.5847 172.974 17.1637 172.127 17.1637C171.068 17.1637 170.433 17.7953 170.01 19.4795C170.01 19.6901 170.433 19.69 170.857 19.69ZM174.667 24.5321C173.397 25.3742 172.127 25.7953 170.645 25.7953C168.316 25.7953 166.834 24.5322 166.834 22.2164C166.834 20.1111 167.681 18.0059 169.163 16.7427C170.221 15.9006 171.28 15.4795 172.55 15.4795C174.456 15.4795 175.938 16.3216 175.938 18.2163C175.938 20.111 174.244 21.5848 170.857 21.5848C170.221 21.5848 169.586 21.3742 169.586 21.3742C169.586 21.3742 169.586 22.0058 169.586 22.2164C169.586 23.269 170.221 23.9005 171.28 23.9005C172.127 23.9005 173.185 23.4795 174.032 22.8479L174.667 24.5321Z" fill="#594E4E"/>
<path d="M183.58 18.2896C183.157 17.8685 182.522 17.658 182.098 17.658C181.675 17.658 181.251 17.8685 180.828 18.2896C180.193 19.1317 179.346 21.237 179.346 22.7107C179.346 23.7633 179.769 24.1843 180.616 24.1843C181.251 24.1843 182.098 23.7632 182.733 23.1316L183.58 24.8159C182.522 25.658 181.463 26.0791 179.981 26.0791C177.864 26.0791 176.594 24.8159 176.594 22.7107C176.594 20.1844 177.652 18.079 179.134 16.8158C179.981 15.9737 181.04 15.5527 182.31 15.5527C183.157 15.5527 184.215 15.9737 184.851 16.8158L183.58 18.2896Z" fill="#594E4E"/>
<path d="M195.468 15.6526L191.445 19.8631L194.197 25.5472H191.022L188.905 19.8631L192.292 15.6526H195.468ZM190.387 11.2314C190.598 11.6525 190.598 12.9156 189.963 15.0209L187.634 25.7578H185.094L187.423 14.8104C187.634 13.3367 187.846 12.7052 187.634 12.0736L190.387 11.2314Z" fill="#594E4E"/>
<path d="M199.149 19.69C200.207 19.69 201.478 19.2689 201.478 18.2163C201.478 17.5847 201.266 17.1637 200.419 17.1637C199.36 17.1637 198.725 17.7953 198.302 19.4795C198.514 19.6901 198.937 19.69 199.149 19.69ZM203.171 24.5321C201.901 25.3742 200.631 25.7953 199.149 25.7953C196.82 25.7953 195.338 24.5322 195.338 22.2164C195.338 20.1111 196.185 18.0059 197.667 16.7427C198.725 15.9006 199.784 15.4795 201.054 15.4795C202.96 15.4795 204.441 16.3216 204.441 18.2163C204.441 20.111 202.748 21.5848 199.36 21.5848C198.725 21.5848 198.09 21.3742 198.09 21.3742C198.09 21.3742 198.09 22.0058 198.09 22.2164C198.09 23.269 198.725 23.9005 199.784 23.9005C200.631 23.9005 201.689 23.4795 202.536 22.8479L203.171 24.5321Z" fill="#594E4E"/>
<path d="M208.755 15.3994C208.967 15.8205 208.967 16.452 208.967 17.0836C209.814 16.2415 210.872 15.6099 211.719 15.6099C212.142 15.6099 212.354 15.61 212.566 15.8205L211.507 18.1362C211.295 17.9257 211.084 17.9258 210.66 17.9258C210.237 17.9258 209.602 18.1362 208.755 19.1889L207.273 25.7153H204.732L206.214 19.1889C206.426 17.9257 206.426 17.0836 206.214 16.452L208.755 15.3994Z" fill="#594E4E"/>
</svg>
