<svg width="166" height="43" viewBox="0 0 166 43" fill="none" xmlns="http://www.w3.org/2000/svg">
<path d="M53.1689 33.6395L55.2265 28.8386C57.4212 30.4846 60.439 31.4448 63.3195 31.4448C65.5143 31.4448 66.886 30.6218 66.886 29.3873C66.886 25.8208 53.8548 28.5642 53.7176 19.7853C53.7176 15.2587 57.6956 11.8295 63.3195 11.8295C66.7488 11.8295 70.0409 12.6525 72.5099 14.5729L70.5896 19.511C68.3948 18.1393 65.6514 17.0419 63.0452 17.0419C61.262 17.0419 60.1646 17.865 60.1646 18.9623C60.1646 22.3916 73.333 20.4712 73.4701 28.9757C73.4701 33.6395 69.4922 36.7945 64.0054 36.7945C59.8903 36.6573 56.0495 35.6971 53.1689 33.6395ZM132.728 27.0554C131.63 28.8386 129.71 30.0731 127.515 30.0731C124.223 30.0731 121.48 27.3297 121.48 24.0376C121.48 20.7455 124.223 18.0021 127.515 18.0021C129.71 18.0021 131.63 19.2367 132.728 21.0199L138.489 17.865C136.294 14.0242 132.179 11.418 127.515 11.418C120.657 11.418 115.033 17.0419 115.033 23.9005C115.033 30.759 120.657 36.3829 127.515 36.3829C132.179 36.3829 136.294 33.7767 138.489 29.9359L132.728 27.0554Z" fill="#010101"/>
<path d="M83.4836 1.13086H76.3506V36.1089H83.4836V1.13086Z" fill="#010101"/>
<path d="M141.232 1.13086V36.2459H148.365V25.6839L156.87 36.2459H166.06L155.224 23.7639L165.237 12.1039H156.458L148.365 21.7059V1.13086H141.232Z" fill="#010101"/>
<path d="M104.745 27.1926C103.648 28.8387 101.59 30.2104 99.1211 30.2104C95.829 30.2104 93.0856 27.467 93.0856 24.1749C93.0856 20.8828 95.829 18.1394 99.1211 18.1394C101.59 18.1394 103.648 19.5111 104.745 21.1571V27.1926ZM104.745 12.1039V14.9845C103.511 13.0641 100.63 11.6924 97.6122 11.6924C91.3024 11.6924 86.3643 17.1792 86.3643 24.1749C86.3643 31.1705 91.3024 36.7945 97.6122 36.7945C100.63 36.7945 103.511 35.4228 104.745 33.5024V36.383H111.878V12.1039H104.745Z" fill="#010101"/>
<path d="M9.00005 27.0555C9.00005 29.5245 7.07966 31.4449 4.6106 31.4449C2.14154 31.4449 0.0839844 29.5245 0.0839844 27.0555C0.0839844 24.5864 2.14154 22.666 4.47343 22.666H8.86287V27.0555H9.00005ZM11.1948 27.0555C11.1948 24.5864 13.1152 22.666 15.5842 22.666C18.0533 22.666 19.9737 24.5864 19.9737 27.0555V38.0291C19.9737 40.4981 18.0533 42.4185 15.5842 42.4185C13.1152 42.4185 11.1948 40.4981 11.1948 38.0291V27.0555Z" fill="#E01E5A"/>
<path d="M15.5842 9.36092C13.1152 9.36092 11.1948 7.44054 11.1948 4.97148C11.1948 2.50241 13.1152 0.582031 15.5842 0.582031C18.0533 0.582031 19.9737 2.50241 19.9737 4.97148V9.36092H15.5842ZM15.5842 11.5556C18.0533 11.5556 19.9737 13.476 19.9737 15.9451C19.9737 18.4142 18.0533 20.3345 15.5842 20.3345H4.47343C2.00437 20.3345 0.0839844 18.4142 0.0839844 15.9451C0.0839844 13.476 2.00437 11.5556 4.47343 11.5556H15.5842Z" fill="#36C5F0"/>
<path d="M33.2793 16.0823C33.2793 13.6132 35.1997 11.6928 37.6687 11.6928C40.1378 11.6928 42.0582 13.6132 42.0582 16.0823C42.0582 18.5513 40.1378 20.4717 37.6687 20.4717H33.2793V16.0823ZM31.0846 16.0823C31.0846 18.5513 29.1642 20.4717 26.6951 20.4717C24.226 20.4717 22.3057 18.5513 22.3057 16.0823V4.97148C22.3057 2.50241 24.226 0.582031 26.6951 0.582031C29.1642 0.582031 31.0846 2.50241 31.0846 4.97148V16.0823Z" fill="#2EB67D"/>
<path d="M26.6951 33.7768C29.1642 33.7768 31.0846 35.6972 31.0846 38.1662C31.0846 40.6353 29.1642 42.5557 26.6951 42.5557C24.226 42.5557 22.3057 40.6353 22.3057 38.1662V33.7768H26.6951ZM26.6951 31.4449C24.226 31.4449 22.3057 29.5245 22.3057 27.0555C22.3057 24.5864 24.226 22.666 26.6951 22.666H37.8059C40.275 22.666 42.1953 24.5864 42.1953 27.0555C42.1953 29.5245 40.275 31.4449 37.8059 31.4449H26.6951Z" fill="#ECB22E"/>
</svg>
