<svg width="118" height="42" viewBox="0 0 118 42" fill="none" xmlns="http://www.w3.org/2000/svg">
<path d="M15.9804 35.9774C21.5328 35.9774 25.8261 31.6832 25.8261 25.3288V0.597656H31.8359V40.6716H25.8834V36.9502C23.193 39.7551 19.4726 41.358 15.293 41.358C6.70559 41.358 0.12207 35.1182 0.12207 25.6763V0.604229H6.13185V25.3288C6.13185 31.7978 10.3678 35.9774 15.9785 35.9774H15.9804ZM36.3028 0.598595H42.0844V15.1967C44.8086 12.4063 48.5459 10.8367 52.4456 10.8453C61.033 10.8453 67.7875 17.6579 67.7875 26.1308C67.7875 34.5463 61.033 41.3581 52.4456 41.3581C48.5275 41.3686 44.7704 39.8004 42.0224 37.0075V40.6697H36.2944L36.3028 0.598595ZM52.0456 36.2638C57.5417 36.2638 62.0641 31.7405 62.0641 26.1308C62.0641 20.4628 57.5417 15.9977 52.0456 15.9977C46.4922 15.9977 41.9698 20.4628 41.9698 26.1308C41.9698 31.7405 46.4349 36.2638 52.0456 36.2638ZM85.0778 10.9025C93.4924 10.9025 99.6759 17.3715 99.6759 26.0735V27.9628H75.9213C76.7233 32.7143 80.6728 36.2638 85.5933 36.2638C88.9738 36.2638 91.8341 34.8891 94.0089 31.9696L98.1885 35.0609C95.2681 38.9541 90.9176 41.3007 85.5933 41.3007C76.835 41.3007 70.0796 34.7745 70.0796 26.0735C70.0796 17.8298 76.5486 10.9025 85.0787 10.9025H85.0778ZM76.0331 23.3832H93.837C92.8642 18.9171 89.2574 15.9404 84.9642 15.9404C80.6709 15.9404 77.0641 18.9171 76.0331 23.3832ZM115.19 16.6278C111.411 16.6278 108.663 19.5472 108.663 24.0696V40.6716H102.881V11.4754H108.609V15.085C110.04 12.7374 112.388 11.249 115.593 11.249H117.596V16.6306L115.19 16.6278Z" fill="#594E4E"/>
</svg>
