<svg width="165" height="48" viewBox="0 0 165 48" fill="none" xmlns="http://www.w3.org/2000/svg">
<path d="M35.2732 9.50222C35.2404 9.27256 35.0435 9.14132 34.8795 9.14132C34.7154 9.14132 31.2049 8.87885 31.2049 8.87885C31.2049 8.87885 28.777 6.45097 28.4817 6.1885C28.2192 5.92602 27.6943 5.99164 27.4974 6.05726C27.4646 6.05726 26.9725 6.22131 26.1194 6.48378C25.2992 4.08871 23.8556 1.9233 21.3293 1.9233C21.2637 1.9233 21.1981 1.9233 21.0996 1.9233C20.4106 1.00464 19.492 0.578125 18.7374 0.578125C12.8317 0.578125 10.0101 7.96019 9.12428 11.7004C6.82763 12.4222 5.18718 12.9144 4.99032 12.98C3.71076 13.3737 3.67795 13.4065 3.51391 14.6205C3.38267 15.5391 0.0361328 41.4584 0.0361328 41.4584L26.1194 46.3469L40.2602 43.2957C40.2602 43.2629 35.306 9.73189 35.2732 9.50222ZM24.6758 6.87749C24.0197 7.07434 23.265 7.30401 22.4776 7.56648C22.4776 7.40244 22.4776 7.2712 22.4776 7.07434C22.4776 5.63074 22.2808 4.44961 21.9527 3.49814C23.265 3.695 24.1181 5.17141 24.6758 6.87749ZM20.3122 3.82623C20.6731 4.74489 20.9028 6.02445 20.9028 7.79615C20.9028 7.89457 20.9028 7.96019 20.9028 8.05862C19.4592 8.51795 17.9171 8.97728 16.3423 9.46942C17.2281 6.09007 18.9014 4.44961 20.3122 3.82623ZM18.5733 2.15297C18.8358 2.15297 19.0983 2.25139 19.3279 2.41544C17.425 3.30129 15.4236 5.53231 14.5706 10.0272C13.3239 10.4209 12.1099 10.7818 10.9616 11.1427C11.9459 7.73053 14.3409 2.15297 18.5733 2.15297Z" fill="#95BF47"/>
<path d="M34.8796 9.10808C34.7155 9.10808 31.205 8.84561 31.205 8.84561C31.205 8.84561 28.7771 6.41773 28.4818 6.15526C28.3834 6.05683 28.2521 5.99121 28.1209 5.99121L26.1523 46.3465L40.2931 43.2953C40.2931 43.2953 35.3389 9.73146 35.3061 9.50179C35.2405 9.27213 35.0436 9.14089 34.8796 9.10808Z" fill="#5E8E3E"/>
<path d="M21.3291 16.9171L19.5903 22.1009C19.5903 22.1009 18.0482 21.2807 16.1781 21.2807C13.4221 21.2807 13.2909 23.0196 13.2909 23.4461C13.2909 25.8084 19.459 26.727 19.459 32.2718C19.459 36.6354 16.703 39.457 12.9628 39.457C8.46794 39.457 6.2041 36.6682 6.2041 36.6682L7.41804 32.6983C7.41804 32.6983 9.7803 34.7325 11.7489 34.7325C13.0612 34.7325 13.5862 33.7154 13.5862 32.9608C13.5862 29.8767 8.53355 29.7455 8.53355 24.6601C8.53355 20.3949 11.5848 16.2609 17.7857 16.2609C20.148 16.2281 21.3291 16.9171 21.3291 16.9171Z" fill="white"/>
<path d="M56.7629 26.6618C55.3521 25.9072 54.6303 25.251 54.6303 24.3652C54.6303 23.2497 55.6473 22.5279 57.2222 22.5279C59.0595 22.5279 60.7 23.2825 60.7 23.2825L61.9795 19.3454C61.9795 19.3454 60.7984 18.4267 57.3206 18.4267C52.4648 18.4267 49.0855 21.2155 49.0855 25.1198C49.0855 27.3508 50.6603 29.0241 52.7601 30.238C54.4662 31.1895 55.0568 31.8785 55.0568 32.8956C55.0568 33.9454 54.2037 34.7985 52.6289 34.7985C50.2994 34.7985 48.0684 33.5845 48.0684 33.5845L46.6904 37.5217C46.6904 37.5217 48.7246 38.8996 52.1696 38.8996C57.1566 38.8996 60.7656 36.4389 60.7656 32.0097C60.7328 29.5818 58.9283 27.9086 56.7629 26.6618ZM76.6452 18.3611C74.1845 18.3611 72.2488 19.5422 70.7724 21.3139L70.7068 21.2811L72.8394 10.126H67.2946L61.8811 38.5387H67.4258L69.2632 28.8272C69.985 25.1526 71.8879 22.8888 73.6596 22.8888C74.9063 22.8888 75.3985 23.7418 75.3985 24.9557C75.3985 25.7103 75.3329 26.6618 75.1688 27.4164L73.069 38.5387H78.6138L80.7792 27.0555C81.0088 25.8416 81.1729 24.398 81.1729 23.4137C81.2057 20.2312 79.5652 18.3611 76.6452 18.3611ZM93.7716 18.3611C87.0785 18.3611 82.6493 24.398 82.6493 31.1239C82.6493 35.4219 85.3068 38.8996 90.2938 38.8996C96.8557 38.8996 101.285 33.0268 101.285 26.1369C101.318 22.1341 98.9883 18.3611 93.7716 18.3611ZM91.0485 34.6344C89.1455 34.6344 88.3581 33.0268 88.3581 30.9926C88.3581 27.8101 89.9986 22.6263 93.017 22.6263C94.9856 22.6263 95.6417 24.3324 95.6417 25.9728C95.6417 29.385 93.9685 34.6344 91.0485 34.6344ZM115.524 18.3611C111.784 18.3611 109.651 21.6748 109.651 21.6748H109.586L109.914 18.6892H104.992C104.763 20.6905 104.303 23.7746 103.877 26.0712L100.005 46.4129H105.55L107.092 38.1778H107.223C107.223 38.1778 108.372 38.8996 110.472 38.8996C117.001 38.8996 121.266 32.2066 121.266 25.4479C121.266 21.7076 119.592 18.3611 115.524 18.3611ZM110.209 34.7001C108.765 34.7001 107.912 33.8798 107.912 33.8798L108.831 28.696C109.487 25.2182 111.292 22.9216 113.227 22.9216C114.934 22.9216 115.458 24.4964 115.458 25.9728C115.458 29.5818 113.326 34.7001 110.209 34.7001ZM129.206 10.3885C127.434 10.3885 126.023 11.7992 126.023 13.6038C126.023 15.2442 127.073 16.3925 128.648 16.3925H128.713C130.452 16.3925 131.929 15.2114 131.962 13.1772C131.962 11.5368 130.879 10.3885 129.206 10.3885Z" fill="#594E4E"/>
<path d="M121.43 38.5051H126.975L130.748 18.7871H125.17L121.43 38.5051Z" fill="#594E4E"/>
<path d="M144.888 18.7546H141.017L141.214 17.8359C141.542 15.933 142.657 14.2597 144.527 14.2597C145.512 14.2597 146.299 14.555 146.299 14.555L147.382 10.1914C147.382 10.1914 146.43 9.69922 144.363 9.69922C142.395 9.69922 140.426 10.257 138.917 11.5365C137.014 13.1442 136.128 15.4736 135.702 17.8359L135.538 18.7546H132.946L132.126 22.9541H134.717L131.765 38.5057H137.309L140.262 22.9541H144.101L144.888 18.7546ZM158.274 18.7874C158.274 18.7874 154.797 27.5474 153.255 32.3376H153.189C153.091 30.7955 151.811 18.7874 151.811 18.7874H145.971L149.318 36.8652C149.383 37.2589 149.35 37.5214 149.186 37.7839C148.53 39.0306 147.447 40.2446 146.168 41.1304C145.118 41.885 143.937 42.3772 143.018 42.7053L144.56 47.4298C145.676 47.2001 148.038 46.2487 150.007 44.4113C152.533 42.0491 154.895 38.3745 157.29 33.3875L164.082 18.7874H158.274Z" fill="#594E4E"/>
</svg>
