<svg width="120" height="120" viewBox="0 0 120 120" fill="none" xmlns="http://www.w3.org/2000/svg">
<g clip-path="url(#clip0_93_110)">
<path d="M70.6341 43.1249C69.9141 44.5649 66.1191 47.4599 61.3791 47.8199C62.5791 45.5999 66.1191 41.0549 68.8491 41.0549C69.8991 41.0549 70.4991 41.5199 70.7091 41.9399C70.8741 42.2549 70.8591 42.6599 70.6341 43.1249ZM51.1341 44.8199C49.7091 43.9649 49.1841 43.0049 49.1841 42.3899C49.1841 41.5949 50.0091 41.0399 51.1641 41.0399C53.9391 41.0399 57.4791 45.5849 58.6641 47.8049C55.4841 47.5649 52.2291 45.4649 51.1341 44.8199ZM74.3541 39.7349C73.5141 38.0249 71.7741 37.0049 69.7191 37.0049C64.9941 37.0049 61.6491 42.1049 60.0141 45.3299C58.3641 42.1049 55.0191 37.0349 50.3091 37.0349C47.3241 37.0349 45.1641 39.1649 45.1641 42.0599C45.1641 47.1899 50.0541 50.5199 59.8641 50.5199C69.6741 50.5199 74.8641 46.2299 74.8641 42.0899C74.8791 41.2649 74.7141 40.4549 74.3541 39.7349Z" fill="#E41F26"/>
<path d="M39.75 64.0203H80.28V61.3203H39.75V64.0203Z" fill="#E41F26"/>
<path d="M57.3008 80.2349H62.7158V50.5049H57.3008V80.2349Z" fill="#E41F26"/>
<path d="M71.3105 43.455C71.7305 42.6 71.5805 41.97 71.3855 41.595C71.0705 40.965 70.2456 40.29 68.8505 40.29C65.6555 40.29 61.9355 45.21 60.7205 47.445L60.0605 48.66L61.4255 48.555C66.4955 48.18 70.5005 45.09 71.3105 43.455ZM68.8505 41.805C69.6005 41.805 69.9605 42.105 70.0505 42.285C70.0955 42.39 70.0655 42.57 69.9605 42.795C69.4955 43.725 66.7355 46.095 62.8505 46.86C64.3955 44.595 66.9905 41.805 68.8505 41.805Z" fill="#594E4E"/>
<path d="M59.9705 48.6597L59.3255 47.4597C58.1255 45.2097 54.4055 40.3047 51.1655 40.3047C49.5905 40.3047 48.4355 41.1897 48.4355 42.4047C48.4355 43.4547 49.3055 44.6097 50.7455 45.4797L51.0455 45.6597C52.3805 46.4547 55.5005 48.3297 58.6055 48.5697L59.9705 48.6597ZM51.8255 44.3547L51.5255 44.1747C50.2655 43.4247 49.9355 42.6747 49.9355 42.3897C49.9355 42.0597 50.4755 41.7897 51.1655 41.7897C53.0405 41.7897 55.6205 44.5497 57.1655 46.7997C54.9305 46.2297 52.8305 44.9697 51.8255 44.3547Z" fill="#594E4E"/>
<path d="M111.121 48.5251C110.581 49.5901 107.791 51.7351 104.281 51.9901C105.166 50.3401 107.791 46.9801 109.801 46.9801C110.581 46.9801 111.031 47.3251 111.181 47.6251C111.301 47.8801 111.286 48.1801 111.121 48.5251ZM96.6912 49.7851C95.6262 49.1551 95.2512 48.4501 95.2512 47.9851C95.2512 47.4001 95.8663 46.9801 96.7213 46.9801C98.7763 46.9801 101.386 50.3401 102.271 51.9901C99.9163 51.8101 97.5012 50.2501 96.6912 49.7851ZM113.881 46.0201C113.266 44.7601 111.976 43.9951 110.446 43.9951C106.951 43.9951 104.476 47.7751 103.261 50.1451C102.046 47.7601 99.5712 44.0101 96.0912 44.0101C93.8862 44.0101 92.2812 45.5851 92.2812 47.7301C92.2812 51.5251 95.8962 53.9851 103.156 53.9851C110.416 53.9851 114.256 50.8051 114.256 47.7451C114.256 47.1451 114.136 46.5451 113.881 46.0201Z" fill="#FDD1D1"/>
<path d="M103.246 52.8155L103.576 52.8455L103.546 52.8005L104.326 52.7405C108.001 52.4705 111.061 50.2805 111.781 48.8705V48.8555C112.111 48.1655 111.991 47.6405 111.841 47.2955C111.586 46.7855 110.911 46.2305 109.786 46.2305C107.326 46.2305 104.521 49.9355 103.606 51.6305L103.261 52.2755L102.916 51.6305C102.301 50.4905 99.4513 46.2305 96.7063 46.2305C95.4163 46.2305 94.4863 46.9655 94.4863 47.9855C94.4863 48.4055 94.6663 49.4705 96.3013 50.4305L96.5863 50.5955C97.6663 51.2405 99.9163 52.5605 102.211 52.7405L102.991 52.8005L102.976 52.8455L103.246 52.8155ZM109.801 47.7305C110.266 47.7305 110.476 47.9105 110.506 47.9405C110.521 47.9855 110.506 48.0755 110.446 48.1955C110.116 48.8255 108.331 50.3555 105.796 50.9855C106.981 49.3805 108.676 47.7305 109.801 47.7305ZM97.3513 49.3055L97.0663 49.1405C96.1963 48.6155 96.0013 48.1355 96.0013 47.9855C96.0013 47.9255 96.2113 47.7305 96.7213 47.7305C97.8463 47.7305 99.5113 49.3205 100.681 50.8955C99.3163 50.4605 98.0563 49.7255 97.3513 49.3055Z" fill="#594E4E"/>
<path d="M118.666 53.2351H110.746C113.551 51.8851 115.006 49.8151 115.006 47.7451C115.006 47.0101 114.856 46.3051 114.556 45.6901C113.806 44.1601 112.276 43.2451 110.446 43.2451C107.131 43.2451 104.701 46.2001 103.261 48.6001C101.836 46.2151 99.4209 43.2601 96.0909 43.2601C93.4959 43.2601 91.5309 45.1801 91.5309 47.7301C91.5309 50.1751 92.8209 52.0501 95.1909 53.2351H87.8409C87.1209 53.2351 86.5059 53.8501 86.5059 54.5701V61.4101C86.5059 62.0251 86.9409 62.5501 87.5109 62.7001V63.9901V75.4051C87.5109 76.1251 88.1259 76.7401 88.8459 76.7401H100.501H106.006H117.661C118.381 76.7401 118.996 76.1251 118.996 75.4051V63.9901V62.7001C119.566 62.5501 120.001 62.0101 120.001 61.4101V54.5701C120.001 53.8351 119.401 53.2351 118.666 53.2351ZM118.501 61.2451H106.006V54.7351H118.501V61.2451ZM93.0309 47.7301C93.0309 46.0051 94.3209 44.7601 96.0909 44.7601C99.2109 44.7601 101.506 48.3451 102.586 50.4901L103.246 51.7951L103.921 50.4901C105.016 48.3451 107.326 44.7451 110.431 44.7451C111.676 44.7451 112.696 45.3451 113.191 46.3501C113.386 46.7551 113.491 47.2351 113.491 47.7451C113.491 50.4001 109.861 53.2351 103.141 53.2351C96.7209 53.2351 93.0309 51.2251 93.0309 47.7301ZM88.0059 54.7351H100.501V61.2451H88.0059V54.7351ZM89.0109 75.2401V63.9901V62.7451H100.501V75.2401H89.0109ZM102.001 75.2401V54.7351H104.506V75.2401H102.001ZM117.496 75.2401H106.006V62.7451H117.496V63.9901V75.2401Z" fill="#594E4E"/>
<path d="M24.6004 48.5251C24.0604 49.5901 21.2704 51.7351 17.7604 51.9901C18.6454 50.3401 21.2704 46.9801 23.2804 46.9801C24.0604 46.9801 24.5104 47.3251 24.6604 47.6251C24.7954 47.8801 24.7804 48.1801 24.6004 48.5251ZM10.1854 49.7851C9.12039 49.1551 8.74539 48.4501 8.74539 47.9851C8.74539 47.4001 9.36039 46.9801 10.2154 46.9801C12.2704 46.9801 14.8804 50.3401 15.7654 51.9901C13.4104 51.8101 10.9954 50.2501 10.1854 49.7851ZM27.3754 46.0201C26.7604 44.7601 25.4704 43.9951 23.9404 43.9951C20.4454 43.9951 17.9704 47.7751 16.7554 50.1451C15.5404 47.7601 13.0654 44.0101 9.58539 44.0101C7.38039 44.0101 5.77539 45.5851 5.77539 47.7301C5.77539 51.5251 9.39039 53.9851 16.6504 53.9851C23.9104 53.9851 27.7504 50.8051 27.7504 47.7451C27.7504 47.1451 27.6304 46.5451 27.3754 46.0201Z" fill="#FDD1D1"/>
<path d="M119.251 120C118.891 120 118.576 119.745 118.516 119.37C117.361 112.44 109.006 99.2251 108.916 99.1051C108.856 99.0001 107.341 96.72 105.136 97.695C102.946 98.685 103.816 101.49 103.846 101.61C103.966 101.985 103.786 102.375 103.426 102.525C103.066 102.675 102.646 102.525 102.466 102.18L101.266 99.885C100.126 97.71 97.8307 97.0051 95.2807 98.0551C92.7607 99.1051 93.9457 103.125 93.9607 103.17C94.0657 103.53 93.8857 103.92 93.5407 104.085C93.1807 104.235 92.7757 104.1 92.5957 103.77C92.5957 103.77 92.1157 102.93 91.4707 101.865C90.9907 101.07 89.5207 99.345 86.2207 100.545C83.3107 101.595 84.6307 105.525 84.6907 105.69C84.8107 106.035 84.6607 106.425 84.3307 106.605C84.0157 106.785 83.5957 106.68 83.3857 106.395C82.8307 105.645 69.8407 88.2 68.8207 86.775C68.1007 85.77 66.7657 84.825 64.5607 86.085C62.7307 87.15 63.7357 89.85 63.7507 89.88L79.9507 115.62C80.1757 115.965 80.0707 116.43 79.7107 116.655C79.3657 116.88 78.9007 116.775 78.6757 116.415L62.4157 90.525C61.8307 89.04 61.4857 86.13 63.8107 84.765C66.2257 83.385 68.5507 83.8051 70.0507 85.8751C70.8307 86.9851 79.2007 98.22 82.8757 103.17C82.9807 101.535 83.6857 99.87 85.7107 99.135C88.7557 98.025 90.9757 98.9401 92.2207 100.365C92.3857 98.8651 93.0457 97.38 94.7257 96.6901C97.8307 95.4 100.786 96.2251 102.361 98.7901C102.661 97.8151 103.291 96.8851 104.521 96.3301C107.236 95.1151 109.411 97.0951 110.176 98.3101C110.521 98.8651 118.771 111.9 119.986 119.145C120.061 119.55 119.776 119.94 119.371 120.015C119.326 120 119.296 120 119.251 120Z" fill="#594E4E"/>
<path d="M5.38542 37.755C5.29542 37.755 5.19042 37.74 5.10042 37.695C4.72542 37.53 4.54542 37.095 4.69542 36.72C14.1004 14.415 35.8204 0 60.0154 0C84.1504 0 105.84 14.355 115.275 36.57C115.44 36.945 115.26 37.395 114.885 37.56C114.51 37.725 114.06 37.545 113.895 37.155C104.685 15.495 83.5504 1.5 60.0154 1.5C36.4204 1.5 15.2554 15.555 6.07542 37.29C5.95542 37.59 5.67042 37.755 5.38542 37.755Z" fill="#594E4E"/>
<path d="M16.7391 52.8155L17.0691 52.8455L17.0391 52.8005L17.8041 52.7405C21.4791 52.4705 24.5391 50.2805 25.2591 48.8705C25.6341 48.1655 25.4991 47.6105 25.3191 47.2955C25.0641 46.7855 24.3891 46.2305 23.2641 46.2305C20.8041 46.2305 17.9841 49.9505 17.0841 51.6305L16.7541 52.2605L16.4241 51.6305C15.8091 50.4905 12.9591 46.2305 10.2141 46.2305C8.92414 46.2305 7.99414 46.9655 7.99414 47.9855C7.99414 48.4055 8.17414 49.4705 9.80914 50.4305L10.0941 50.5955C11.1741 51.2405 13.4241 52.5605 15.7191 52.7405L16.4841 52.8005L16.4691 52.8455L16.7391 52.8155ZM23.2791 47.7305C23.7441 47.7305 23.9541 47.8955 23.9991 47.9705C23.9991 47.9855 23.9991 48.0455 23.9391 48.1655V48.1805C23.6241 48.7955 21.8391 50.3405 19.3041 50.9855C20.4591 49.3805 22.1691 47.7305 23.2791 47.7305ZM10.8441 49.3055L10.5591 49.1405C9.67414 48.6155 9.49414 48.1355 9.49414 47.9855C9.49414 47.9255 9.70414 47.7305 10.2141 47.7305C11.3391 47.7305 13.0041 49.3205 14.1741 50.8955C12.8091 50.4605 11.5491 49.7255 10.8441 49.3055Z" fill="#594E4E"/>
<path d="M19.5 76.7401H31.155C31.875 76.7401 32.49 76.1251 32.49 75.4051V63.9901V62.7001C33.06 62.5501 33.495 62.0101 33.495 61.4101V54.5701C33.495 53.8351 32.895 53.2351 32.16 53.2351H24.24C27.045 51.8851 28.5 49.8151 28.5 47.7451C28.5 47.0101 28.35 46.3051 28.05 45.6901C27.3 44.1601 25.77 43.2451 23.94 43.2451C20.625 43.2451 18.18 46.2001 16.755 48.6001C15.33 46.2151 12.9 43.2601 9.585 43.2601C6.99 43.2601 5.025 45.1801 5.025 47.7301C5.025 50.1751 6.315 52.0501 8.685 53.2351H1.335C0.615 53.2351 0 53.8501 0 54.5701V61.4101C0 62.0251 0.435 62.5501 1.005 62.7001V63.9901V75.4051C1.005 76.1401 1.605 76.7401 2.34 76.7401H13.995H19.5ZM15.495 75.2401V54.7351H18V75.2401H15.495ZM30.99 75.2401H19.5V62.7451H30.99V63.9901V75.2401ZM31.995 61.2451H19.5V54.7351H31.995V61.2451ZM6.525 47.7301C6.525 46.0051 7.815 44.7601 9.585 44.7601C12.705 44.7601 15 48.3451 16.08 50.4901L16.74 51.7951L17.415 50.4901C18.51 48.3451 20.82 44.7451 23.94 44.7451C25.185 44.7451 26.205 45.3451 26.7 46.3501C26.895 46.7551 27 47.2351 27 47.7451C27 50.4001 23.37 53.2351 16.65 53.2351C10.215 53.2351 6.525 51.2251 6.525 47.7301ZM1.5 54.7351H13.995V61.2451H1.5V54.7351ZM2.505 75.2401V63.9901V62.7451H13.995V75.2401H2.505Z" fill="#594E4E"/>
<path d="M60.0154 118.485C36.4204 118.485 15.2554 104.43 6.07542 82.6951C5.91042 82.3201 5.47542 82.1401 5.10042 82.2901C4.72542 82.4551 4.54542 82.8901 4.69542 83.2801C14.1004 105.57 35.8204 119.985 60.0154 119.985C60.4354 119.985 60.7654 119.655 60.7654 119.235C60.7654 118.815 60.4354 118.485 60.0154 118.485Z" fill="#594E4E"/>
<path d="M80.8348 49.7549H68.9098C73.3348 48.0299 75.6148 45.0599 75.6148 42.1049C75.6298 41.1449 75.4348 40.2149 75.0298 39.4049C74.0548 37.4399 72.0748 36.2549 69.7198 36.2549C65.1598 36.2549 61.8598 40.5149 60.0148 43.7549C58.1548 40.5299 54.8548 36.2849 50.3098 36.2849C46.8898 36.2849 44.4148 38.7149 44.4148 42.0599C44.4148 45.6149 46.4998 48.2399 50.3098 49.7549H39.1798C38.3248 49.7549 37.6348 50.4449 37.6348 51.2999V60.5399C37.6348 61.3349 38.2348 61.9799 38.9998 62.0699V64.7699V79.4549C38.9998 80.3099 39.6898 80.9999 40.5448 80.9999H79.4998C80.3548 80.9999 81.0448 80.3099 81.0448 79.4549V62.0699C81.8098 61.9799 82.4098 61.3199 82.4098 60.5399V51.2549C82.3498 50.4149 81.6598 49.7549 80.8348 49.7549ZM45.9148 42.0599C45.9148 39.5849 47.7598 37.7849 50.3098 37.7849C54.6598 37.7849 57.8398 42.7199 59.3398 45.6749L60.0148 46.9799L60.6748 45.6599C62.1748 42.7049 65.3398 37.7399 69.7048 37.7399C71.4748 37.7399 72.9598 38.6099 73.6648 40.0499C73.9648 40.6349 74.1148 41.3399 74.0998 42.0749C74.0998 45.7199 69.2998 49.5749 60.4198 49.7399H59.0998C50.7148 49.5899 45.9148 46.8149 45.9148 42.0599ZM56.5498 79.4699L40.4998 79.4549V64.7699H56.5498V79.4699ZM56.5498 63.2699H40.4998V62.0699H56.5498V63.2699ZM56.5498 60.5699H40.0348L39.1348 60.5399L39.1798 51.2549H56.5498V60.5699ZM61.9648 79.4849H58.0498V51.2549H61.9648V79.4849ZM79.4998 79.4999L63.4648 79.4849V64.7699H79.5298L79.4998 79.4999ZM79.5298 63.2699H63.4648V62.0699H79.5298V63.2699ZM80.8648 60.5699H63.4648V51.2549H80.8348L80.9098 51.2999L80.8648 60.5699Z" fill="#594E4E"/>
</g>
<defs>
<clipPath id="clip0_93_110">
<rect width="120" height="120" fill="white"/>
</clipPath>
</defs>
</svg>
