<svg width="120" height="120" viewBox="0 0 120 120" fill="none" xmlns="http://www.w3.org/2000/svg">
<path d="M87.5703 16.7549H83.0703V39.0749H87.5703V16.7549Z" fill="#E6771F"/>
<path d="M47.4797 86.1115L42.7814 81.4132V75.986C42.7814 75.0047 41.9862 74.2094 41.0035 74.2094C40.023 74.2094 39.2278 75.0047 39.2278 75.986V77.8596L35.7296 74.3613C34 72.6327 30.993 72.6358 29.2674 74.3644L17.5201 86.1115C16.8266 86.8063 16.8266 87.9306 17.5201 88.6244C18.2139 89.319 19.3404 89.319 20.0339 88.6244L31.78 76.8771C32.1627 76.4964 32.8371 76.4964 33.2178 76.8759L44.9659 88.6244C45.3143 88.9717 45.7684 89.1445 46.2225 89.1445C46.6775 89.1445 47.1324 88.9715 47.4797 88.6244C48.1734 87.9307 48.1734 86.8064 47.4797 86.1115Z" fill="#E41F26"/>
<path d="M33.1167 80.249C32.7754 79.9079 32.2228 79.9079 31.8825 80.249L21.5496 90.5788C21.3864 90.7419 21.2939 90.9646 21.2939 91.1969V98.7311C21.2939 100.499 22.7274 101.932 24.4953 101.932H29.6112V94.0098H35.3869V101.932H40.5028C42.2706 101.932 43.7041 100.499 43.7041 98.7312V91.1969C43.7041 90.9646 43.6124 90.7419 43.4485 90.5788L33.1167 80.249Z" fill="#E41F26"/>
<path d="M8.7 90.405C8.445 90.405 8.19 90.27 8.055 90.03C2.79 80.955 0 70.56 0 60C0 26.91 26.91 0 60 0C65.235 0 70.44 0.675 75.45 2.01C75.855 2.115 76.095 2.52 75.99 2.925C75.885 3.33 75.48 3.57 75.075 3.45C70.17 2.16 65.115 1.5 60 1.5C27.75 1.5 1.5 27.75 1.5 60C1.5 70.305 4.215 80.43 9.345 89.28C9.555 89.64 9.435 90.09 9.075 90.3C8.955 90.375 8.835 90.405 8.7 90.405Z" fill="#594E4E"/>
<path d="M60 120C49.275 120 38.76 117.135 29.595 111.735C29.235 111.525 29.115 111.06 29.325 110.715C29.535 110.355 30 110.235 30.345 110.445C39.3 115.71 49.545 118.5 60 118.5C92.25 118.5 118.5 92.2504 118.5 60.0004C118.5 47.4904 114.6 35.5504 107.22 25.4704C106.98 25.1404 107.04 24.6604 107.385 24.4204C107.715 24.1804 108.195 24.2404 108.435 24.5854C115.995 34.9204 120 47.1604 120 60.0004C120 93.0904 93.09 120 60 120Z" fill="#594E4E"/>
<path d="M93.1047 11.5495C92.5647 12.6145 89.7747 14.7595 86.2647 15.0145C87.1497 13.3645 89.7747 10.0045 91.7847 10.0045C92.5647 10.0045 93.0147 10.3495 93.1647 10.6495C93.2847 10.9045 93.2697 11.2195 93.1047 11.5495ZM78.6897 12.8095C77.6247 12.1795 77.2497 11.4745 77.2497 11.0095C77.2497 10.4245 77.8647 10.0045 78.7197 10.0045C80.7747 10.0045 83.3847 13.3645 84.2697 15.0145C81.8997 14.8345 79.4847 13.2895 78.6897 12.8095ZM95.8647 9.04453C95.2497 7.78453 93.9597 7.01953 92.4297 7.01953C88.9347 7.01953 86.4597 10.7995 85.2447 13.1695C84.0297 10.7845 81.5547 7.03453 78.0747 7.03453C75.8697 7.03453 74.2646 8.60953 74.2646 10.7545C74.2646 14.5495 77.8796 17.0095 85.1397 17.0095C92.3997 17.0095 96.2397 13.8295 96.2397 10.7695C96.2397 10.1845 96.1347 9.58453 95.8647 9.04453Z" fill="#E6771F"/>
<path d="M85.245 15.8399L85.575 15.8699L85.545 15.8249L86.31 15.7649C89.985 15.4949 93.045 13.3049 93.765 11.8949C94.035 11.3699 94.05 10.8149 93.825 10.3199C93.57 9.80988 92.895 9.25488 91.77 9.25488C89.31 9.25488 86.49 12.9599 85.59 14.6549L85.26 15.2849L84.93 14.6549C84.315 13.5149 81.465 9.25488 78.72 9.25488C77.43 9.25488 76.5 9.98988 76.5 11.0099C76.5 11.4299 76.68 12.4949 78.3 13.4549L78.45 13.5449C79.455 14.1599 81.795 15.5849 84.21 15.7649L84.975 15.8249L84.96 15.8699L85.245 15.8399ZM91.785 10.7549C92.25 10.7549 92.46 10.9349 92.49 10.9649C92.505 10.9949 92.49 11.0849 92.43 11.2049C92.115 11.8349 90.33 13.3649 87.795 13.9949C88.965 12.4049 90.675 10.7549 91.785 10.7549ZM79.23 12.2549L79.065 12.1649C78.195 11.6399 78 11.1599 78 11.0099C78 10.9499 78.21 10.7549 78.72 10.7549C79.845 10.7549 81.51 12.3449 82.68 13.9349C81.195 13.4549 79.845 12.6299 79.23 12.2549Z" fill="#594E4E"/>
<path d="M100.665 16.2745H92.6999C95.5199 14.9245 96.9899 12.8395 96.9899 10.7695C96.9899 10.0045 96.8399 9.31453 96.5399 8.71453C95.7899 7.18453 94.2599 6.26953 92.4299 6.26953C89.1149 6.26953 86.6699 9.22453 85.2449 11.6245C83.8199 9.23953 81.3899 6.28453 78.0749 6.28453C75.4799 6.28453 73.5149 8.20453 73.5149 10.7545C73.5149 13.2145 74.8049 15.0895 77.2049 16.2745H69.8399C69.1199 16.2745 68.5049 16.8895 68.5049 17.6095V24.4495C68.5049 25.0495 68.9399 25.5745 69.4949 25.7395V27.0145H69.5099V38.4445C69.5099 39.1645 70.1249 39.7795 70.8449 39.7795H99.6599C100.38 39.7795 100.995 39.1645 100.995 38.4445V27.0145V25.7395C101.565 25.5895 102 25.0645 102 24.4495V17.6095C102 16.8745 101.4 16.2745 100.665 16.2745ZM100.5 24.2695H88.0049V17.7745H100.5V24.2695ZM86.5049 17.7745V38.2645H83.9999V17.7745H86.5049ZM75.0149 10.7545C75.0149 9.02953 76.3049 7.78453 78.0749 7.78453C81.1949 7.78453 83.4899 11.3695 84.5699 13.5145L85.2299 14.8195L85.9049 13.5145C86.9999 11.3695 89.3099 7.76953 92.4149 7.76953C93.6599 7.76953 94.6799 8.36953 95.1749 9.37453C95.3699 9.76453 95.4749 10.2295 95.4749 10.7695C95.4749 13.4245 91.8449 16.2595 85.1249 16.2595C78.7049 16.2595 75.0149 14.2495 75.0149 10.7545ZM82.4999 17.7745V24.2695H70.0049V17.7745H82.4999ZM71.0099 25.7695H82.4999V38.2795H71.0099V25.7695ZM99.4949 38.2795H88.0049V25.7695H99.4949V27.0145V38.2795Z" fill="#594E4E"/>
<path d="M88.2597 61.9948H19.0046C14.7146 61.9948 12.7646 59.2798 12.7646 56.7448C12.7646 55.3798 13.3046 54.1048 14.2796 53.1598C15.4046 52.0648 17.0396 51.4948 19.0046 51.4948H55.7546C59.8346 51.4948 61.9796 48.7948 61.9796 46.1248C61.9796 43.4548 59.8496 40.7548 55.7546 40.7548H35.9996C32.3246 40.7548 30.6596 38.4898 30.6596 36.3748C30.6596 35.2348 31.1246 34.1848 31.9496 33.4048C32.9096 32.4898 34.3196 32.0098 36.0146 32.0098H56.2646C56.6846 32.0098 57.0146 31.6798 57.0146 31.2598C57.0146 30.8398 56.6846 30.5098 56.2646 30.5098H35.9996C31.4996 30.5098 29.1596 33.4648 29.1596 36.3898C29.1596 39.3148 31.4996 42.2398 35.9996 42.2398H55.7546C58.9946 42.2398 60.4796 44.2498 60.4796 46.1098C60.4796 47.9698 59.0096 49.9798 55.7546 49.9798H19.0046C13.9196 49.9798 11.2646 53.3698 11.2646 56.7298C11.2646 60.0898 13.9196 63.4798 19.0046 63.4798H88.2597C98.3097 63.4798 102.885 70.6798 102.885 77.3698C102.885 84.0598 98.3097 91.2748 88.2597 91.2748H69.5996L73.2896 87.5848C73.5896 87.2848 73.5896 86.8198 73.2896 86.5198C72.9896 86.2198 72.5246 86.2198 72.2246 86.5198L67.2597 91.4848C67.0497 91.6948 66.9747 92.0248 67.0947 92.2948C67.1547 92.4448 67.2747 92.5648 67.4096 92.6398L72.2246 97.4998C72.3746 97.6498 72.5696 97.7248 72.7496 97.7248C72.9296 97.7248 73.1396 97.6498 73.2746 97.4998C73.5746 97.1998 73.5746 96.7348 73.2746 96.4348L69.6296 92.7748H88.2446C93.2096 92.7748 97.3796 91.1098 100.32 87.9598C102.93 85.1698 104.37 81.4048 104.37 77.3848C104.385 69.9748 99.3447 61.9948 88.2597 61.9948Z" fill="#594E4E"/>
<path d="M61.1152 31.9643C61.5121 31.8459 61.738 31.4282 61.6196 31.0312C61.5012 30.6343 61.0834 30.4085 60.6865 30.5269C60.2896 30.6452 60.0637 31.063 60.1821 31.4599C60.3005 31.8569 60.7183 32.0827 61.1152 31.9643Z" fill="#594E4E"/>
<path d="M64.8349 31.9643C65.2319 31.8459 65.4577 31.4282 65.3393 31.0312C65.2209 30.6343 64.8032 30.4085 64.4062 30.5269C64.0093 30.6452 63.7835 31.063 63.9019 31.4599C64.0202 31.8569 64.438 32.0827 64.8349 31.9643Z" fill="#594E4E"/>
</svg>
