<svg width="120" height="120" viewBox="0 0 120 120" fill="none" xmlns="http://www.w3.org/2000/svg">
<path d="M73.4548 31.9199H45.8848V38.8199H73.4548V31.9199Z" fill="#E41F26"/>
<path d="M59.6699 108.93C46.7999 108.93 34.6349 103.995 25.3949 95.0546C25.0949 94.7696 25.0949 94.2896 25.3799 93.9896C25.6649 93.6896 26.1449 93.6896 26.4449 93.9746C35.3999 102.645 47.1899 107.43 59.6699 107.43C60.0899 107.43 60.4199 107.76 60.4199 108.18C60.4199 108.6 60.0899 108.93 59.6699 108.93Z" fill="#594E4E"/>
<path d="M93.87 80.8203H66.105L63.855 70.4403H83.64C88.83 70.4403 93.06 66.2103 93.06 61.0203V26.1153C93.06 20.9253 88.83 16.6953 83.64 16.6953H35.67C30.48 16.6953 26.25 20.9253 26.25 26.1153V57.0903C26.25 57.5103 26.58 57.8403 27 57.8403H83.205C83.625 57.8403 83.955 57.5103 83.955 57.0903C83.955 56.6703 83.625 56.3403 83.205 56.3403H27.75V26.1153C27.75 21.7503 31.305 18.1953 35.67 18.1953H83.64C88.005 18.1953 91.56 21.7503 91.56 26.1153V61.0203C91.56 65.3853 88.005 68.9403 83.64 68.9403H35.685C31.32 68.9403 27.765 65.3853 27.765 61.0203C27.765 60.6003 27.435 60.2703 27.015 60.2703C26.595 60.2703 26.265 60.6003 26.265 61.0203C26.265 66.2103 30.495 70.4403 35.685 70.4403H56.16L53.865 80.8203H45.3C44.88 80.8203 44.55 81.1503 44.55 81.5703C44.55 81.9903 44.88 82.3203 45.3 82.3203H93.87C94.29 82.3203 94.62 81.9903 94.62 81.5703C94.62 81.1503 94.29 80.8203 93.87 80.8203ZM57.705 70.4403H62.325L64.575 80.8203H55.395L57.705 70.4403Z" fill="#594E4E"/>
<path d="M36.9305 80.8203H20.7305C20.3105 80.8203 19.9805 81.1503 19.9805 81.5703C19.9805 81.9903 20.3105 82.3203 20.7305 82.3203H22.3205V91.7703C22.3205 92.1903 22.6505 92.5203 23.0705 92.5203C23.4905 92.5203 23.8205 92.1903 23.8205 91.7703V82.3203H36.9305C37.3505 82.3203 37.6805 81.9903 37.6805 81.5703C37.6805 81.1503 37.3505 80.8203 36.9305 80.8203Z" fill="#594E4E"/>
<path d="M59.6705 65.9552C61.0871 65.9552 62.2355 64.8068 62.2355 63.3902C62.2355 61.9736 61.0871 60.8252 59.6705 60.8252C58.2539 60.8252 57.1055 61.9736 57.1055 63.3902C57.1055 64.8068 58.2539 65.9552 59.6705 65.9552Z" fill="#E6771F"/>
<path d="M60 120C26.91 120 0 93.09 0 60C0 26.91 26.91 0 60 0C93.09 0 120 26.91 120 60C120 66.285 119.04 72.465 117.135 78.36C117.015 78.75 116.58 78.975 116.19 78.84C115.8 78.72 115.575 78.285 115.71 77.895C117.555 72.15 118.5 66.12 118.5 60C118.5 27.75 92.25 1.5 60 1.5C27.75 1.5 1.5 27.75 1.5 60C1.5 92.25 27.75 118.5 60 118.5C65.625 118.5 71.175 117.705 76.53 116.13C76.92 116.01 77.34 116.235 77.46 116.64C77.58 117.03 77.355 117.45 76.95 117.57C71.46 119.19 65.76 120 60 120Z" fill="#594E4E"/>
<path d="M74.2201 32.3846C74.1751 31.6946 73.6201 31.1696 72.9451 31.1696H66.5101C68.7301 29.9846 69.9001 28.2746 69.9001 26.5496C69.9001 25.8896 69.7651 25.2746 69.4951 24.7196C68.8351 23.3696 67.4701 22.5596 65.8651 22.5596C62.9251 22.5596 60.9751 27.0746 59.6851 30.0596C59.6851 30.0746 59.6701 30.0896 59.6701 30.1046C59.6701 30.0896 59.6551 30.0746 59.6551 30.0596C58.3651 27.0746 56.4151 22.5746 53.4901 22.5746C51.1951 22.5746 49.4551 24.2696 49.4551 26.5196C49.4551 27.6596 49.8451 29.7446 52.2901 31.1696H46.3801C45.6901 31.1696 45.1201 31.7396 45.1201 32.4296V38.3246C45.1201 38.8796 45.4801 39.3596 45.9901 39.5246V50.3846C45.9901 51.0746 46.5601 51.6446 47.2501 51.6446H72.0901C72.7801 51.6446 73.3501 51.0746 73.3501 50.3846V39.5246C73.8601 39.3596 74.2201 38.8796 74.2201 38.3246V32.3846ZM61.0651 30.6446C62.0551 28.3496 63.9151 24.0596 65.8651 24.0596C66.9001 24.0596 67.7251 24.5396 68.1451 25.3796C68.3101 25.7246 68.4001 26.1146 68.4001 26.5496C68.4001 28.6196 65.7751 30.8096 60.8551 31.1246C60.9301 30.9746 60.9901 30.8096 61.0651 30.6446ZM50.9551 26.5196C50.9551 25.1096 52.0201 24.0746 53.4901 24.0746C55.4251 24.0746 57.2851 28.3496 58.2751 30.6446C58.3501 30.8096 58.4251 30.9746 58.4851 31.1396C53.6851 30.9296 50.9551 29.2796 50.9551 26.5196ZM46.6201 32.6696H72.7201V38.0846H72.6601C72.6301 38.0846 72.6151 38.0696 72.5851 38.0696H46.7551C46.7251 38.0696 46.7101 38.0846 46.6801 38.0846H46.6201V32.6696ZM47.4901 50.1446V40.6046C47.4901 40.5746 47.5051 40.5596 47.5051 40.5296V39.5696H71.8351V40.5296C71.8351 40.5596 71.8501 40.5746 71.8501 40.6046V50.1446H47.4901Z" fill="#594E4E"/>
<circle cx="95" cy="101" r="18" fill="#E41F26"/>
<path d="M91.5363 100.864C90.6936 100.864 90.0056 100.587 89.4723 100.032C88.939 99.4773 88.6723 98.72 88.6723 97.76C88.6723 97.1307 88.795 96.5813 89.0403 96.112C89.2856 95.6427 89.6216 95.2853 90.0483 95.04C90.4856 94.784 90.9816 94.656 91.5363 94.656C92.3896 94.656 93.083 94.9387 93.6163 95.504C94.1496 96.0587 94.4163 96.8107 94.4163 97.76C94.4163 98.72 94.1496 99.4773 93.6163 100.032C93.083 100.587 92.3896 100.864 91.5363 100.864ZM98.1603 94.8H100.464L92.8163 106H90.5123L98.1603 94.8ZM91.5363 99.344C91.8243 99.344 92.0536 99.216 92.2243 98.96C92.395 98.704 92.4803 98.304 92.4803 97.76C92.4803 97.216 92.395 96.816 92.2243 96.56C92.0536 96.304 91.8243 96.176 91.5363 96.176C91.259 96.176 91.0296 96.3093 90.8483 96.576C90.6776 96.832 90.5923 97.2267 90.5923 97.76C90.5923 98.2933 90.6776 98.6933 90.8483 98.96C91.0296 99.216 91.259 99.344 91.5363 99.344ZM99.4403 106.144C98.587 106.144 97.8936 105.867 97.3603 105.312C96.8376 104.757 96.5763 104 96.5763 103.04C96.5763 102.091 96.843 101.339 97.3763 100.784C97.9096 100.219 98.5976 99.936 99.4403 99.936C100.294 99.936 100.987 100.219 101.52 100.784C102.054 101.339 102.32 102.091 102.32 103.04C102.32 104 102.054 104.757 101.52 105.312C100.987 105.867 100.294 106.144 99.4403 106.144ZM99.4403 104.624C99.7283 104.624 99.9576 104.496 100.128 104.24C100.299 103.984 100.384 103.584 100.384 103.04C100.384 102.496 100.299 102.096 100.128 101.84C99.9576 101.584 99.7283 101.456 99.4403 101.456C99.1523 101.456 98.923 101.584 98.7523 101.84C98.5816 102.096 98.4963 102.496 98.4963 103.04C98.4963 103.584 98.5816 103.984 98.7523 104.24C98.923 104.496 99.1523 104.624 99.4403 104.624Z" fill="white"/>
</svg>
