<svg width="77" height="53" viewBox="0 0 77 53" fill="none" xmlns="http://www.w3.org/2000/svg">
<path d="M58.0175 25.3637L21.9089 51.3347L3.30273 27.4037L37.8163 2.51367L58.0175 25.3637Z" fill="white"/>
<path d="M39.0328 31.8777L41.6577 28.8947C43.9628 26.2747 45.017 23.6487 44.8202 21.0167C44.6234 18.3847 43.1683 15.9921 40.4549 13.8387C35.0505 9.56477 29.9553 10.1571 25.1694 15.6157L16.8836 24.4767C16.5129 24.8228 16.1611 25.1866 15.8294 25.5667C15.3774 26.0831 14.9828 26.6424 14.6519 27.2357C14.3305 27.795 14.1113 28.4019 14.0036 29.0307C13.9064 29.617 13.95 30.2166 14.1311 30.7847C14.3416 31.3935 14.7383 31.9292 15.2707 32.3237C15.7423 32.718 16.3065 32.9995 16.9163 33.1447C17.5153 33.263 18.1336 33.263 18.7326 33.1447C19.4646 33.0059 20.1806 32.8 20.8705 32.5297C21.6435 32.2303 22.5185 31.8773 23.4953 31.4707C24.4722 31.064 25.4607 30.6973 26.4607 30.3707C27.3793 30.0668 28.3314 29.8635 29.2986 29.7647C30.0076 29.6944 30.7233 29.7139 31.4269 29.8227L24.8531 24.6227L26.9151 22.2807L39.0328 31.8777Z" fill="#1C1B17"/>
<path d="M71.3685 2.33468C69.8479 1.64337 68.1608 1.34839 66.4803 1.48002C64.7999 1.61165 63.1866 2.16514 61.8061 3.08368C61.7289 3.13105 61.6375 3.15318 61.5457 3.14668L56.3392 2.49168L52.2279 1.95368L42.9776 0.742673C42.3725 0.664673 41.767 0.578008 41.1612 0.482675C41.0238 0.457086 40.8821 0.460672 40.7463 0.493177C40.6105 0.525681 40.484 0.586297 40.3759 0.670675L28.5059 9.19468C33.024 6.80202 37.706 7.51668 42.5517 11.3387C44.0552 12.427 45.3007 13.803 46.2075 15.3775C47.1142 16.9519 47.662 18.6895 47.8151 20.4777C48.0703 23.995 46.7554 27.395 43.8704 30.6777L39.2131 35.9827L36.5977 33.9147C36.95 34.8279 37.0699 35.8072 36.9477 36.7727C36.8045 37.835 36.4599 38.8639 35.9304 39.8097C35.397 40.7653 34.763 41.6672 34.0382 42.5017L42.577 36.3597L57.3607 25.7137C58.009 25.2647 58.6615 24.7897 59.3183 24.3317C59.4206 24.2622 59.506 24.1726 59.5687 24.0691C59.6315 23.9656 59.6701 23.8506 59.682 23.7317C59.8243 22.7317 59.9708 21.7317 60.1121 20.7257C60.5879 17.633 61.0468 14.53 61.4888 11.4167C61.8293 9.07968 62.1561 6.74168 62.5008 4.40868C62.5199 4.31138 62.5776 4.22475 62.6621 4.16668C62.9454 3.99115 63.239 3.83089 63.5413 3.68668C65.3748 2.79702 67.493 2.59061 69.4789 3.10807C71.4648 3.62553 73.1745 4.82938 74.2717 6.48268C75.2589 7.90998 75.6964 9.61677 75.5104 11.3147C75.9837 13.0147 76.5182 14.4547 76.5182 14.4547C76.5182 14.4547 76.8871 12.2607 76.9535 11.1547C77.0757 9.32065 76.6068 7.49476 75.6093 5.91943C74.6118 4.3441 73.1327 3.09385 71.3685 2.33468ZM53.2167 14.5347C52.4253 15.0298 51.4648 15.2206 50.5305 15.0684C49.5961 14.9161 48.7578 14.4322 48.1859 13.7149C47.614 12.9976 47.3513 12.1007 47.4513 11.2064C47.5512 10.3121 48.0062 9.48733 48.7238 8.89968C49.4073 8.34143 50.2827 8.04 51.1845 8.05234C52.0863 8.06469 52.9522 8.38996 53.6184 8.96668L53.4075 9.11968L50.7162 11.0537C50.5961 11.1371 50.5074 11.2549 50.4632 11.3897C50.4189 11.5246 50.4215 11.6694 50.4706 11.8027C50.515 11.9371 50.6048 12.054 50.7262 12.1351C50.8475 12.2163 50.9937 12.2572 51.1421 12.2517C51.3131 12.2329 51.4761 12.1726 51.6154 12.0767C52.5094 11.4487 53.3886 10.8117 54.273 10.1767L54.467 10.0377C54.8728 10.8026 54.9698 11.6819 54.7395 12.5098C54.5092 13.3378 53.9676 14.0573 53.2167 14.5327V14.5347Z" fill="#1C1B17"/>
<path d="M25.3321 44.5107C25.9498 44.4147 26.552 44.2444 27.1242 44.0037C27.7566 43.7433 28.3655 43.4343 28.9448 43.0797C29.5289 42.7246 30.0869 42.332 30.6146 41.9047C31.0954 41.5205 31.5415 41.0987 31.9481 40.6437C33.0279 39.5748 33.7247 38.2101 33.9395 36.7437C33.9322 35.8449 33.5992 34.9759 32.9965 34.2823C32.3938 33.5888 31.558 33.113 30.6294 32.9347C29.9572 32.8402 29.2724 32.8646 28.6096 33.0067C27.8211 33.1738 27.0502 33.4081 26.3062 33.7067C25.4867 34.0267 24.6104 34.3767 23.6771 34.7567C22.6932 35.1607 21.7472 35.5137 20.8393 35.8157C19.9833 36.1048 19.0945 36.2975 18.1912 36.3897C17.3556 36.4737 16.5109 36.4114 15.6991 36.2057C14.7177 35.9145 13.8166 35.4203 13.061 34.7586C12.3053 34.097 11.714 33.2845 11.3296 32.3797C10.9716 31.4306 10.8441 30.4171 10.9564 29.4147C11.0874 28.3584 11.4083 27.3312 11.9051 26.3777C12.4086 25.3683 13.0444 24.4231 13.7974 23.5647C14.9844 22.2187 22.9866 13.7937 22.9866 13.7937C23.6201 13.0676 24.2958 12.3755 25.0106 11.7207L5.38823 25.8207L3.95034 26.8697C2.97629 27.5697 1.99696 28.2607 1.02712 28.9697C0.884403 29.0724 0.78934 29.2237 0.762 29.3916C0.734659 29.5595 0.77718 29.731 0.880589 29.8697C0.937515 29.9507 1.00393 30.0267 1.06507 30.1077L12.0179 43.8267L18.8563 52.3867C18.9098 52.4952 18.991 52.5892 19.0925 52.6602C19.194 52.7313 19.3127 52.7772 19.4376 52.7937C19.5626 52.8102 19.69 52.7968 19.8081 52.7547C19.9262 52.7126 20.0313 52.6432 20.114 52.5527L21.2736 51.7187L28.1689 46.7837L25.3321 44.5107Z" fill="#1C1B17"/>
</svg>
