<svg width="32" height="32" viewBox="0 0 32 32" fill="none" xmlns="http://www.w3.org/2000/svg">
<circle cx="16" cy="16" r="16" fill="#FFF6F6"/>
<path d="M24.25 9.24973C23.5318 9.75634 22.7366 10.1438 21.895 10.3972C21.4433 9.87786 20.843 9.50975 20.1753 9.34267C19.5076 9.1756 18.8046 9.21763 18.1616 9.46307C17.5185 9.70851 16.9663 10.1455 16.5797 10.715C16.1931 11.2845 15.9908 11.959 16 12.6472V13.3972C14.682 13.4314 13.376 13.1391 12.1983 12.5463C11.0206 11.9535 10.0077 11.0787 9.25 9.99973C9.25 9.99973 6.25 16.7497 13 19.7497C11.4554 20.7982 9.61537 21.3239 7.75 21.2497C14.5 24.9997 22.75 21.2497 22.75 12.6247C22.7493 12.4158 22.7292 12.2074 22.69 12.0022C23.4555 11.2473 23.9956 10.2943 24.25 9.24973Z" fill="#594E4E"/>
</svg>
